<?xml version="1.0" encoding="UTF-8" standalone="no"?>
<svg
   xmlns:dc="http://purl.org/dc/elements/1.1/"
   xmlns:cc="http://creativecommons.org/ns#"
   xmlns:rdf="http://www.w3.org/1999/02/22-rdf-syntax-ns#"
   xmlns:svg="http://www.w3.org/2000/svg"
   xmlns="http://www.w3.org/2000/svg"
   version="1.1"
   width="370.71078"
   height="139.58405"
   id="svg137"
   viewBox="0 0 370.71079 139.58405">
  <metadata
     id="metadata143">
    <rdf:RDF>
      <cc:Work
         rdf:about="">
        <dc:format>image/svg+xml</dc:format>
        <dc:type
           rdf:resource="http://purl.org/dc/dcmitype/StillImage" />
        <dc:title></dc:title>
      </cc:Work>
    </rdf:RDF>
  </metadata>
  <defs
     id="defs141" />
  <g
     transform="translate(-485.11917,-653.74605)"
     id="Layer1002">
    <g
       id="Layer1003">
      <path
         d="m 614.1502,705.4622 c -2.0391,-10.6444 -6.6911,-21.0324 -14.3094,-30.0376 -1.6778,-1.8438 -3.4127,-3.6026 -5.0851,-5.3494 -3.3529,-3.1868 -7.1282,-6.1439 -11.3764,-8.798 -4.1963,-2.241 -8.5508,-3.9745 -12.9863,-5.2166 9.935,3.22 18.1764,8.4167 24.7652,14.8754 -5.0001,-2.3088 -10.7427,-3.1005 -17.2598,-2.7312 -8.337,-6.8598 -18.0462,-11.4322 -28.8062,-12.2212 5.5049,-1.6207 9.2682,-1.8863 11.8572,-1.804 2.0285,0.2471 4.053,0.5872 6.0615,1.0348 -0.9405,-0.3135 -2.241,-0.5805 -3.2067,-0.8036 l -3.1869,-0.4225 -2.7604,-0.2417 c -2.2516,-0.005 -6.1092,-0.0186 -12.71,2.1134 -3.669,0.0479 -7.451,0.538 -11.3325,1.5237 3.4883,-0.813 6.9142,-1.1809 10.2618,-1.1663 -3.9134,1.3417 -8.7262,3.406 -14.6655,6.6021 -5.6934,0.0212 -10.5527,1.8039 -14.6853,4.2894 3.9081,-2.2065 8.2798,-3.5043 13.1125,-3.4286 -4.0064,2.2157 -8.5004,4.9243 -13.5376,8.2334 -2.071,-0.097 -4.118,0.356 -6.1545,1.4572 1.6074,-0.716 3.2506,-0.9113 4.9377,-0.6562 -3.0859,2.0537 -6.3737,4.3279 -9.87,6.8478 -0.364,-0.166 -0.7213,-0.2205 -1.0707,-0.1381 1.5184,-1.8239 3.046,-3.5481 4.579,-5.1701 0.4756,-0.3228 0.9485,-0.627 1.424,-0.8834 -0.3971,0.178 -0.7943,0.3906 -1.1875,0.6283 1.9686,-2.0669 3.9453,-3.9692 5.9299,-5.7001 0.5978,-0.4078 1.2049,-0.8103 1.8372,-1.1902 -0.5433,0.3055 -1.0694,0.6402 -1.5928,0.9816 2.0192,-1.7494 4.045,-3.3236 6.0708,-4.7091 0.4875,-0.2949 0.9777,-0.5858 1.4652,-0.8648 -0.3241,0.1687 -0.6456,0.3441 -0.9697,0.5141 0.005,-0.005 0.009,-0.007 0.0159,-0.009 -0.008,0.003 -0.0159,0.009 -0.0266,0.0146 -0.1899,0.0996 -0.3799,0.1953 -0.5698,0.3029 l -3.1111,2.0404 c -0.109,0.085 -0.2112,0.166 -0.3202,0.2457 0.2444,-0.1753 0.4982,-0.3467 0.7519,-0.5207 0.5553,-0.356 1.1411,-0.7319 1.7601,-1.1118 -1.0747,0.7 -2.1387,1.4187 -3.1722,2.1878 -1.1052,0.914 -2.2476,1.8956 -3.4379,2.9783 -0.7877,0.5712 -1.5595,1.1743 -2.3087,1.8146 0.3122,-0.3029 0.5938,-0.5991 0.9206,-0.8967 -0.4796,0.4251 -0.9405,0.8595 -1.3962,1.2938 -0.6031,0.5314 -1.1902,1.0827 -1.7628,1.6473 0.3122,-0.2896 0.6456,-0.5792 0.9711,-0.8701 -1.0375,1.0427 -2.0444,2.1559 -3.0885,3.4153 -0.36,0.3294 -0.7227,0.6881 -1.0813,1.0746 0.4995,-0.6057 1.1039,-1.3177 1.889,-2.237 -0.8343,0.9193 -1.4241,1.6113 -2.0099,2.3592 -0.1408,0.1608 -0.2869,0.2963 -0.4304,0.4663 0.1049,-0.1182 0.2139,-0.2139 0.3241,-0.3215 -0.0491,0.0598 -0.0956,0.1196 -0.1421,0.182 0.0571,-0.0744 0.1235,-0.1514 0.1846,-0.2285 0.3255,-0.3307 0.6536,-0.6522 0.9817,-0.9498 -0.724,0.8821 -1.4652,1.8332 -2.2556,2.8933 0.7904,-1.0176 1.6366,-2.0657 2.5239,-3.1244 0.36,-0.3148 0.7187,-0.6124 1.0787,-0.8874 -1.2567,1.3895 -2.5731,2.9331 -3.9599,4.6707 -0.0598,0.0239 -0.1183,0.0411 -0.1767,0.0664 0.1767,-0.2431 0.36,-0.4915 0.534,-0.7253 -0.1953,0.2484 -0.3826,0.4928 -0.5752,0.7399 -0.0292,0.0146 -0.0638,0.0173 -0.093,0.0332 0.7014,-1.0308 1.25,-1.8172 1.7575,-2.4881 -0.7413,0.9113 -1.2474,1.6074 -1.8797,2.5585 -0.0173,0.008 -0.0332,0.0306 -0.0545,0.0399 0.4769,-0.7346 0.9645,-1.4599 1.4201,-2.0816 0.1103,-0.1276 0.2192,-0.2511 0.3321,-0.3773 -0.0731,0.0731 -0.1448,0.1355 -0.2152,0.2099 l -0.1727,0.2192 -0.1196,0.1501 c -0.3958,0.5685 -0.8515,1.2367 -1.2898,1.9168 -0.1342,0.0891 -0.2684,0.1741 -0.4025,0.3003 l -0.2073,0.2869 c -0.2005,0.4038 -0.4582,0.9445 -0.5951,1.3762 0.19,-0.4397 0.4318,-0.9936 0.6868,-1.44 0.1036,-0.0876 0.2112,-0.162 0.3175,-0.2098 -0.3653,0.5725 -0.716,1.1437 -1.0043,1.6498 0.3069,-0.5048 0.6629,-1.0786 1.0309,-1.6565 0.009,-10e-4 0.0186,-10e-4 0.0279,-0.007 -0.3082,0.4742 -0.647,1.0056 -1.0588,1.6631 0.4318,-0.6416 0.7984,-1.1862 1.1371,-1.6857 0.0133,-0.003 0.0253,-0.008 0.0386,-0.009 -0.3999,0.5539 -0.7931,1.1185 -1.1757,1.695 0.4264,-0.6031 0.8343,-1.165 1.2314,-1.711 0.0426,-0.009 0.0837,-0.0199 0.1236,-0.0199 -0.4477,0.5672 -0.89,1.1199 -1.355,1.7309 0.4689,-0.5924 0.9419,-1.1517 1.4121,-1.7256 0.2112,0.005 0.4251,0.0758 0.6483,0.2285 -0.6855,0.4982 -1.3603,0.9817 -2.0604,1.4971 0.7811,-0.4118 1.5436,-0.8528 2.3141,-1.2779 1.0481,0.9551 2.2463,3.4578 3.7554,7.439 -5.3349,0.5818 -8.2812,-0.817 -6.0695,-6.1611 -2.9849,6.9834 0.4477,8.9268 6.8891,8.3795 0.4676,1.2925 0.9577,2.69 1.4838,4.2243 2.2436,6.5171 4.5311,12.5148 6.8478,18.0595 -8.2572,-0.4012 -14.0995,-2.1613 -17.5082,-5.2857 -1.165,-9.0397 -0.9816,-16.8812 0.4331,-21.9875 0.19,-0.3693 0.3812,-0.7479 0.5473,-1.0627 0.4118,-0.7625 0.8422,-1.5343 1.3071,-2.3274 -0.1527,0.2564 -0.3015,0.5128 -0.453,0.7678 0.2564,-0.453 0.4211,-0.7213 0.453,-0.7678 -0.5247,0.7638 -1.0374,1.5529 -1.5383,2.3606 0.0784,-0.2272 0.1555,-0.4557 0.2392,-0.6669 0.3878,-0.53 0.805,-1.0786 1.2991,-1.6937 -0.5008,0.6337 -0.9073,1.1557 -1.2845,1.6525 0.0677,-0.1753 0.1381,-0.344 0.2112,-0.5048 0.3201,-0.4171 0.708,-0.8608 1.0733,-1.1477 -0.3334,0.2338 -0.7611,0.5938 -0.9856,0.9325 l -0.372,0.5965 c -0.089,0.1767 -0.1753,0.3746 -0.259,0.5672 -0.5699,0.7798 -1.0574,1.521 -1.5782,2.4748 0.4424,-0.7784 0.9419,-1.5529 1.5423,-2.3911 -0.1461,0.3348 -0.2883,0.6868 -0.4198,1.0667 -1.3948,2.3366 -2.674,4.8433 -3.7965,7.4589 0.2896,-0.8873 0.5499,-1.6206 0.7479,-2.1506 0.7997,-1.7695 1.3881,-2.9956 1.9261,-3.9839 -0.8621,1.5157 -1.5568,3.0766 -2.5518,5.3255 -0.3494,0.9339 -0.7293,2.0245 -1.1132,3.2466 -0.7519,1.9753 -1.4107,4.0025 -1.9554,6.0602 0.0306,0.5605 0.0957,1.5236 0.2219,2.7909 0.8993,-4.1924 2.2011,-8.1205 3.5229,-11.4627 -2.1906,6.4161 -2.2689,12.382 1.521,16.7909 0.7439,8.0647 2.4841,17.0247 5.453,25.7761 1.529,2.0736 3.2758,3.9852 5.2684,5.6417 -4.4421,-9.8235 -7.3779,-20.2646 -8.9215,-29.7015 3.6611,2.9663 9.6335,4.9668 18.6493,5.546 v 0 c 5.3681,12.2345 10.8942,22.0181 16.4601,29.7108 1.2514,-0.174 2.5027,-0.3812 3.7501,-0.619 -5.6616,-7.4642 -11.3445,-16.9915 -16.941,-28.947 7.5572,0.186 17.0101,-0.5287 28.692,-2.3486 0.5725,0.8767 1.153,1.7601 1.7388,2.6515 4.1552,6.3404 8.7329,13.3158 13.5961,19.6974 1.258,-0.5686 2.431,-1.1199 3.507,-1.6379 -4.0822,-5.4943 -8.0169,-11.4215 -11.7244,-17.0114 -0.9883,-1.4878 -1.9554,-2.9451 -2.9172,-4.3877 0.8303,-0.1435 1.634,-0.2723 2.4828,-0.4211 1.6565,-0.2962 3.3024,-0.5911 4.9336,-0.8807 l -0.005,-0.008 -0.0544,-0.0877 -0.02,-0.0332 -0.0159,-0.0252 -0.0106,-0.0199 -0.008,-0.0107 -10e-4,-0.003 h 10e-4 l 0.005,-0.003 h 10e-4 l 0.0107,-0.003 h 0.0106 l 0.005,-10e-4 0.0199,-0.005 0.0133,-10e-4 0.0107,-10e-4 0.0292,-0.007 0.0133,-10e-4 0.0199,-0.004 0.0385,-0.005 0.012,-0.004 0.0305,-0.004 0.0465,-0.008 0.008,-0.001 0.0438,-0.008 0.0571,-0.012 h 10e-4 l 0.0597,-0.009 0.0585,-0.009 0.008,-0.004 0.1262,-0.0199 0.0212,-0.005 0.0811,-0.012 0.0504,-0.008 0.0359,-0.007 0.0903,-0.0159 0.0425,-0.007 0.0532,-0.009 0.1009,-0.0159 0.0319,-0.007 0.0744,-0.0119 0.1116,-0.0186 0.0186,-0.003 0.097,-0.0159 0.1222,-0.0213 h 0.004 l 0.1222,-0.0186 0.1182,-0.0212 0.0146,-10e-4 0.1368,-0.0226 0.1063,-0.0173 0.0372,-0.004 0.1488,-0.0239 0.0916,-0.0146 0.0611,-0.0106 0.1594,-0.0239 0.0758,-0.0133 0.089,-0.0146 0.17,-0.0253 0.0558,-0.009 0.1196,-0.0199 0.1819,-0.0266 0.0332,-0.007 0.1541,-0.0213 0.1913,-0.0292 0.009,-10e-4 0.19,-0.0306 0.1846,-0.0265 0.02,-0.004 0.2098,-0.0319 0.1634,-0.0252 0.0518,-0.008 0.2219,-0.0332 0.1408,-0.0213 0.0863,-0.0106 0.2338,-0.0345 0.1143,-0.0186 0.1249,-0.0186 0.2457,-0.0346 0.085,-0.0133 0.1661,-0.0252 0.2577,-0.0372 0.0531,-0.005 0.2099,-0.0306 0.4796,-0.0704 0.0664,-0.009 0.2603,-0.0372 0.0226,-0.003 0.2883,-0.0399 0.2298,-0.0332 0.0651,-0.008 0.3002,-0.0425 0.1966,-0.0292 0.1103,-0.0159 0.3148,-0.0412 0.1594,-0.0226 0.1607,-0.0239 0.3268,-0.0438 0.1196,-0.016 0.2138,-0.0292 0.3388,-0.0478 0.077,-0.009 0.2697,-0.0372 c 3.2107,-0.5141 6.3351,-0.9737 9.3439,-1.3497 l 0.0877,0.1408 0.0544,-0.007 0.0532,-0.008 0.0544,-0.007 0.0532,-0.007 0.0544,-0.005 0.0532,-0.007 0.0544,-0.007 0.0545,-0.007 0.0545,-0.007 0.0544,-0.005 0.0532,-0.008 0.0491,-0.005 0.005,-0.001 0.0545,-0.007 0.0558,-0.007 0.0545,-0.007 0.0544,-0.005 0.0558,-0.007 0.0545,-0.007 0.0544,-0.008 0.0558,-0.008 0.0545,-0.007 0.0558,-0.005 0.0558,-0.007 0.0558,-0.007 0.0544,-0.008 0.0558,-0.007 0.0558,-0.007 0.0558,-0.005 0.0558,-0.007 0.0252,-0.004 0.0319,-0.003 0.0558,-0.008 0.0558,-0.007 0.0558,-0.007 0.0571,-0.008 0.0558,-0.005 0.0571,-0.007 0.0558,-0.007 0.0572,-0.008 0.0571,-0.007 0.0558,-0.007 0.0571,-0.005 0.0571,-0.008 0.0571,-0.007 0.0571,-0.007 0.0572,-0.008 0.0571,-0.007 0.0571,-0.005 h 0.001 l 0.0572,-0.008 0.0571,-0.007 0.0584,-0.007 0.0572,-0.008 0.0584,-0.007 0.0571,-0.008 0.0585,-0.007 0.0584,-0.005 0.0585,-0.007 0.0584,-0.007 0.0585,-0.008 0.0571,-0.008 0.0598,-0.007 0.0584,-0.007 0.0585,-0.005 0.0584,-0.008 0.0598,-0.007 -0.0731,-0.1222 c 1.5184,-0.1581 3.0022,-0.2883 4.4462,-0.3892 l 0.0159,-10e-4 0.1634,-0.0172 0.1807,-0.0226 0.1793,-0.0186 0.182,-0.0226 0.182,-0.0186 0.182,-0.0213 0.0876,-0.009 0.0957,-0.0119 0.1846,-0.0199 0.1847,-0.0226 0.1846,-0.0199 0.186,-0.0213 0.1873,-0.0226 0.1621,-0.0172 0.0252,-10e-4 0.1873,-0.0226 0.1886,-0.0212 0.19,-0.0199 0.19,-0.0226 0.1899,-0.0199 0.1926,-0.0226 0.0492,-0.007 0.1421,-0.0159 0.1926,-0.0213 0.194,-0.0199 0.1939,-0.0226 0.1953,-0.0226 0.1953,-0.0199 0.1288,-0.0146 0.0678,-0.008 0.1966,-0.0226 0.1979,-0.0225 0.1993,-0.02 0.1979,-0.0225 0.2006,-0.0226 0.2006,-0.0226 0.008,-10e-4 0.1927,-0.02 0.2019,-0.0225 0.2032,-0.0226 0.2033,-0.0226 0.2032,-0.0213 0.2046,-0.0212 0.0903,-0.0106 0.1156,-0.0133 0.2059,-0.0226 0.2072,-0.0213 0.2072,-0.0225 0.2086,-0.0226 0.2086,-0.0239 0.174,-0.0173 0.0358,-0.005 0.2099,-0.0226 0.2112,-0.0213 0.2126,-0.0239 0.4251,-0.0465 0.2138,-0.0225 0.0465,-0.004 0.1687,-0.02 0.2152,-0.0225 0.2166,-0.024 0.2165,-0.0212 0.2179,-0.0239 0.2178,-0.0226 0.1328,-0.0159 0.0864,-0.008 0.2192,-0.0239 0.2205,-0.0239 0.2218,-0.0239 0.2219,-0.0226 0.2218,-0.0239 0.2232,-0.024 0.1342,-0.0119 0.1341,-0.0146 0.1329,-0.016 0.1328,-0.0132 0.1315,-0.0133 0.1328,-0.0133 0.1316,-0.016 0.1328,-0.0132 0.1302,-0.012 0.1315,-0.0159 0.089,-0.008 0.0412,-0.005 0.1315,-0.012 0.1288,-0.0146 0.1302,-0.0146 0.1302,-0.012 0.1289,-0.0132 0.6416,-0.0665 0.0451,-0.005 0.0824,-0.009 0.2537,-0.0252 0.1262,-0.0146 0.1262,-0.0133 0.1262,-0.012 0.1249,-0.0146 0.1248,-0.0106 0.1262,-0.0133 0.1236,-0.0146 0.1249,-0.012 h 0.004 l 0.1196,-0.0132 0.1249,-0.0133 0.1235,-0.0106 0.1222,-0.0147 0.1236,-0.0106 0.1222,-0.0146 0.1222,-0.0106 0.1222,-0.0146 0.1209,-0.0107 0.1222,-0.0132 0.085,-0.008 0.0359,-0.005 0.1209,-0.0107 0.1208,-0.0132 0.1196,-0.0107 0.1196,-0.0146 0.1195,-0.0106 0.1196,-0.0133 0.1195,-0.0106 0.1182,-0.0133 0.1196,-0.0106 0.1169,-0.0133 0.0452,-0.003 0.073,-0.008 0.1183,-0.0133 0.1169,-0.0107 0.1168,-0.0132 0.1169,-0.0107 0.1156,-0.0106 0.1169,-0.0133 0.1156,-0.0106 0.1156,-0.0133 0.1142,-0.009 0.1156,-0.0133 c -1.792,-0.9259 -3.8829,-1.6153 -6.2674,-2.0882 -4.8154,-11.9117 -12.0698,-23.4448 -21.2543,-32.2188 6.3923,-0.1276 12.2398,0.7957 17.1376,3.2638 v 0 c 7.524,8.8126 12.3488,19.4809 14.4954,30.6394 l 0.542,-0.0545 z M 505.2367,675.2904 v 0 c 1.0706,-1.2619 2.2516,-2.5465 3.5654,-3.8483 0.7585,-0.6509 1.5622,-1.2886 2.3897,-1.9169 -1.5515,1.4294 -3.1854,3.0447 -4.9416,4.9669 -0.34,0.2417 -0.6775,0.5061 -1.0135,0.7983 z m 74.0286,-3.5601 v 0 c 9.2297,8.6226 16.7444,19.9751 21.9079,31.8044 -5.3548,-0.7784 -12.0446,-0.6164 -20.0574,0.2737 -6.6221,-10.594 -14.3879,-20.8226 -23.2296,-28.3107 7.3473,-1.9315 14.6203,-3.3715 21.3791,-3.7674 z m -1.9355,32.5324 v 0 c -7.0378,0.9219 -14.9882,2.3193 -23.8858,4.0834 -1.0388,0.206 -2.0457,0.3946 -3.0566,0.5859 -6.8186,-10.1729 -12.9266,-18.9137 -18.5882,-25.3444 0.6801,-0.2245 1.3563,-0.4504 2.0311,-0.6735 6.5862,-2.1866 13.5642,-4.5019 20.5476,-6.4653 7.0471,6.3537 14.6933,15.4093 22.9519,27.8139 z M 540.0777,659.286 v 0 c 2.8747,-1.2354 5.4199,-2.1733 7.7021,-2.8986 10.121,0.9179 19.4675,5.3734 27.6531,12.0034 -6.2806,0.607 -13.2374,2.1706 -20.9129,4.4089 -8.422,-6.3112 -15.7547,-9.1739 -22.1151,-9.8182 2.5107,-1.3097 5.0519,-2.5744 7.6728,-3.6955 z m -9.3917,4.5882 v 0 c 6.1412,0.7718 12.9877,3.7673 20.5635,9.9059 -6.4852,1.9899 -13.4513,4.3969 -20.9248,7.0604 -0.2591,0.089 -0.5194,0.1859 -0.7785,0.2749 -4.5989,-4.8074 -8.9121,-7.9331 -13.0899,-8.8989 4.6852,-2.8733 9.3864,-5.7307 14.2297,-8.3423 z m -22.3064,23.676 v 0 c -1.8717,-4.1924 -3.3701,-6.7589 -4.7224,-7.7273 3.8019,-2.1307 7.5346,-4.3797 11.2515,-6.6592 3.5773,1.2101 7.3819,4.3491 11.5504,9.0463 -6.383,2.2477 -12.9997,4.4475 -18.0795,5.3402 z m 4.8938,12.0086 v 0 c -1.4705,-3.7832 -2.759,-7.0258 -3.9134,-9.7517 5.3601,-0.805 12.2451,-2.8906 19.182,-5.1502 5.2445,6.3564 11.0695,14.9325 17.7221,25.0176 -10.9367,1.901 -20.1425,2.8136 -27.624,2.7565 -1.7986,-4.0317 -3.5906,-8.3091 -5.3667,-12.8722 z m 15.0029,46.9574 c -7.3898,-0.7705 -13.4354,-2.2477 -18.3451,-4.2588 4.0981,2.6899 9.0995,4.3531 15.2101,4.3531 1.0388,0 2.0842,-0.0319 3.135,-0.0943 z m -30.5251,-60.0527 v 0 c -1.2168,4.4953 -1.7256,11.1492 -1.2872,18.8752 -2.9969,-4.1738 -2.7219,-10.1782 0.8727,-18.0197 0.1461,-0.3082 0.2763,-0.5659 0.4145,-0.8555 z m 12.4497,-16.387 v 0 c 1.5847,-1.4108 3.3435,-2.8149 5.4862,-4.4515 -2.0869,1.4892 -3.8882,2.9796 -5.4862,4.4515 z m 12.6622,-8.7422 v 0 c -0.6855,0.3375 -1.436,0.7479 -2.1945,1.1823 4.4926,-2.3592 8.8803,-4.0463 13.1458,-5.1329 -3.5867,0.8435 -7.2424,2.1281 -10.9513,3.9506 z m -15.8212,11.6833 v 0 c -0.0943,0.0863 -0.1912,0.1726 -0.2829,0.259 l -0.6828,0.7187 c -0.1288,0.154 -0.2245,0.2656 -0.344,0.4051 0.2072,-0.2285 0.4569,-0.4995 0.7,-0.7651 0.2019,-0.2073 0.4038,-0.4158 0.6097,-0.6177 z"
         style="fill:#ffffff;fill-rule:evenodd"
         id="path4" />
      <path
         d="m 525.1413,746.6105 c 23.2801,0 50.2451,-15.6777 50.2451,-15.6777 l 3.6836,3.3715 c 0,0 -33.5963,26.0776 -59.2343,26.0776 -25.638,0 -34.1849,-20.0746 -34.1849,-37.0661 0,-16.9928 5.7971,-22.9931 5.7971,-22.9931 0,0 1.4228,46.2878 33.6934,46.2878 z"
         style="fill:#d9dadb;fill-rule:evenodd"
         id="path6" />
      <path
         d="m 576.4757,733.8088 c 0,0 -0.7399,-1.0242 -6.6327,-8.9374 -5.8941,-7.9106 -8.9879,-13.0369 -8.9879,-13.0369 0,0 10.1662,-1.9049 40.6688,-5.1276 30.5025,-3.2267 36.9837,-3.0792 36.9837,-3.0792 0,0 0.8847,4.397 -6.189,33.9896 -7.0736,29.5939 -12.0817,37.8007 -12.0817,37.8007 0,0 -1.9009,-0.801 -5.271,-3.4512 -3.3755,-2.6514 -5.7174,-4.7888 -5.7174,-4.7888 0,0 -26.1362,26.1521 -57.1315,26.1521 -42.567,0 -67.8689,-42.2761 -66.9749,-64.5692 0.3294,-8.1803 0.9564,-11.302 0.9564,-11.302 0,0 -0.4198,3.0766 -0.0505,10.1941 0.3374,6.4932 4.9337,28.6641 32.0887,28.6641 27.1536,0 58.339,-22.5083 58.339,-22.5083 z"
         style="fill:#ffffff;fill-rule:evenodd"
         id="path8" />
    </g>
    <g
       id="Layer1004">
      <g
         aria-label="ULTRA"
         id="text13">
        <path
           d="m 680.98181,688.68207 h 5.55078 v 24.80078 q 0,6.5625 2.37891,9.46094 2.37891,2.87109 7.71094,2.87109 5.30468,0 7.68359,-2.87109 2.37891,-2.89844 2.37891,-9.46094 v -24.80078 h 5.55078 v 25.48437 q 0,7.98438 -3.96485,12.0586 -3.9375,4.07422 -11.64843,4.07422 -7.73828,0 -11.70313,-4.07422 -3.9375,-4.07422 -3.9375,-12.0586 z"
           style="font-size:56px;font-family:'Bebas Neue';fill:#ffffff"
           id="path145" />
        <path
           d="m 722.62634,688.68207 h 5.52344 v 36.17578 h 19.87891 v 4.64844 h -25.40235 z"
           style="font-size:56px;font-family:'Bebas Neue';fill:#ffffff"
           id="path147" />
        <path
           d="m 740.48181,688.68207 h 34.53516 v 4.64844 h -14.49219 v 36.17578 H 754.974 v -36.17578 h -14.49219 z"
           style="font-size:56px;font-family:'Bebas Neue';fill:#ffffff"
           id="path149" />
        <path
           d="m 799.73572,710.36566 q 1.77734,0.60156 3.44531,2.57031 1.69531,1.96875 3.39063,5.41407 l 5.60546,11.15625 h -5.93359 l -5.22266,-10.47266 q -2.02343,-4.10156 -3.9375,-5.44141 -1.88671,-1.33984 -5.16796,-1.33984 h -6.01563 v 17.25391 h -5.52344 v -40.82422 h 12.46875 q 7,0 10.44532,2.92578 3.44531,2.92578 3.44531,8.83203 0,3.85547 -1.80469,6.39844 -1.77734,2.54297 -5.19531,3.52734 z m -13.83594,-17.14453 v 14.49219 h 6.94531 q 3.99219,0 6.01563,-1.83203 2.05078,-1.85938 2.05078,-5.44141 0,-3.58203 -2.05078,-5.38672 -2.02344,-1.83203 -6.01563,-1.83203 z"
           style="font-size:56px;font-family:'Bebas Neue';fill:#ffffff"
           id="path151" />
        <path
           d="m 830.6615,694.12347 -7.49219,20.31641 h 15.01172 z m -3.11719,-5.4414 h 6.26172 l 15.55859,40.82422 h -5.74218 l -3.71875,-10.47266 h -18.40235 l -3.71875,10.47266 h -5.82422 z"
           style="font-size:56px;font-family:'Bebas Neue';fill:#ffffff"
           id="path153" />
      </g>
      <g
         aria-label="Soluções em Vendas"
         id="text17">
        <path
           d="m 685.65784,744.95544 v 1.68335 q -0.98267,-0.46997 -1.85425,-0.70068 -0.87158,-0.23071 -1.68335,-0.23071 -1.40991,0 -2.17896,0.54687 -0.76049,0.54688 -0.76049,1.55518 0,0.84595 0.50415,1.28174 0.51269,0.42724 1.93115,0.69214 l 1.04248,0.21362 q 1.93115,0.36743 2.84546,1.29883 0.92285,0.92285 0.92285,2.47802 0,1.85425 -1.24756,2.81128 -1.23901,0.95703 -3.64014,0.95703 -0.90576,0 -1.93115,-0.20507 -1.01684,-0.20508 -2.11059,-0.60669 V 754.953 q 1.05102,0.5896 2.05932,0.88867 1.0083,0.29908 1.98242,0.29908 1.47828,0 2.2815,-0.58106 0.80322,-0.58105 0.80322,-1.65771 0,-0.93994 -0.58105,-1.46973 -0.57251,-0.52978 -1.88843,-0.79468 l -1.05103,-0.20507 q -1.93115,-0.38453 -2.79419,-1.20484 -0.86303,-0.82031 -0.86303,-2.28149 0,-1.6919 1.18774,-2.66602 1.19629,-0.97412 3.2898,-0.97412 0.89721,0 1.82861,0.16235 0.9314,0.16236 1.90552,0.48706 z"
           style="font-size:17.5px;font-family:'Bebas Neue';fill:#ffffff"
           id="path156" />
        <path
           d="m 692.75867,748.82629 q -1.26465,0 -1.99951,0.99121 -0.73487,0.98267 -0.73487,2.7002 0,1.71753 0.72632,2.70874 0.73486,0.98267 2.00806,0.98267 1.2561,0 1.99096,-0.99121 0.73487,-0.99122 0.73487,-2.7002 0,-1.70044 -0.73487,-2.69165 -0.73486,-0.99976 -1.99096,-0.99976 z m 0,-1.333 q 2.05078,0 3.22143,1.333 1.17066,1.33301 1.17066,3.69141 0,2.34985 -1.17066,3.69141 -1.17065,1.333 -3.22143,1.333 -2.05933,0 -3.22998,-1.333 -1.16211,-1.34156 -1.16211,-3.69141 0,-2.3584 1.16211,-3.69141 1.17065,-1.333 3.22998,-1.333 z"
           style="font-size:17.5px;font-family:'Bebas Neue';fill:#ffffff"
           id="path158" />
        <path
           d="m 699.74841,743.99841 h 1.57227 v 13.2959 h -1.57227 z"
           style="font-size:17.5px;font-family:'Bebas Neue';fill:#ffffff"
           id="path160" />
        <path
           d="M 704.43958,753.51746 V 747.724 h 1.57226 v 5.73364 q 0,1.35864 0.52979,2.04224 0.52978,0.67505 1.58935,0.67505 1.27319,0 2.00806,-0.81177 0.74341,-0.81177 0.74341,-2.21314 V 747.724 h 1.57226 v 9.57031 h -1.57226 v -1.46973 q -0.57251,0.87159 -1.33301,1.29883 -0.75195,0.4187 -1.75171,0.4187 -1.64917,0 -2.50366,-1.02539 -0.85449,-1.02539 -0.85449,-2.99926 z m 3.95629,-6.02417 z"
           style="font-size:17.5px;font-family:'Bebas Neue';fill:#ffffff"
           id="path162" />
        <path
           d="m 722.59753,748.09143 v 1.46973 q -0.6665,-0.36743 -1.34155,-0.54688 -0.6665,-0.18799 -1.3501,-0.18799 -1.52954,0 -2.37548,0.97413 -0.84595,0.96557 -0.84595,2.71728 0,1.75171 0.84595,2.72583 0.84594,0.96558 2.37548,0.96558 0.6836,0 1.3501,-0.17945 0.67505,-0.18799 1.34155,-0.55542 v 1.45264 q -0.65795,0.30762 -1.36718,0.46143 -0.70069,0.1538 -1.49536,0.1538 -2.16187,0 -3.43506,-1.35864 -1.2732,-1.35864 -1.2732,-3.66577 0,-2.34131 1.28174,-3.68286 1.29028,-1.34155 3.52905,-1.34155 0.72632,0 1.41846,0.1538 0.69214,0.14527 1.34155,0.44434 z m -2.22168,9.20288 q 0.46998,0.52979 0.70069,0.97412 0.23071,0.45288 0.23071,0.86304 0,0.7605 -0.51269,1.14502 -0.5127,0.39307 -1.521,0.39307 -0.39307,0 -0.76904,-0.0513 -0.36744,-0.0513 -0.73487,-0.15381 v -1.11939 q 0.29053,0.14527 0.60669,0.20508 0.31616,0.0684 0.71778,0.0684 0.50415,0 0.76049,-0.20508 0.25635,-0.20508 0.25635,-0.59814 0,-0.25635 -0.18799,-0.63233 -0.17944,-0.36743 -0.56396,-0.88867 z"
           style="font-size:17.5px;font-family:'Bebas Neue';fill:#ffffff"
           id="path164" />
        <path
           d="m 729.0575,748.82629 q -1.26465,0 -1.99952,0.99121 -0.73486,0.98267 -0.73486,2.7002 0,1.71753 0.72632,2.70874 0.73486,0.98267 2.00806,0.98267 1.2561,0 1.99096,-0.99121 0.73487,-0.99122 0.73487,-2.7002 0,-1.70044 -0.73487,-2.69165 -0.73486,-0.99976 -1.99096,-0.99976 z m 0,-1.333 q 2.05078,0 3.22143,1.333 1.17065,1.33301 1.17065,3.69141 0,2.34985 -1.17065,3.69141 -1.17065,1.333 -3.22143,1.333 -2.05933,0 -3.22999,-1.333 -1.1621,-1.34156 -1.1621,-3.69141 0,-2.3584 1.1621,-3.69141 1.17066,-1.333 3.22999,-1.333 z m -0.0342,-1.90552 -0.48707,-0.46997 q -0.18798,-0.1709 -0.33325,-0.2478 -0.13672,-0.0855 -0.2478,-0.0855 -0.32471,0 -0.47852,0.31616 -0.1538,0.30762 -0.17089,1.0083 h -1.06812 q 0.0171,-1.15357 0.45288,-1.77734 0.43579,-0.63233 1.21338,-0.63233 0.32471,0 0.59815,0.11963 0.27343,0.11963 0.58959,0.40161 l 0.48707,0.46997 q 0.18798,0.1709 0.3247,0.25635 0.14527,0.0769 0.25635,0.0769 0.32471,0 0.47852,-0.30761 0.1538,-0.31617 0.17089,-1.01685 h 1.06812 q -0.0171,1.15357 -0.45288,1.78589 -0.43579,0.62378 -1.21338,0.62378 -0.32471,0 -0.59814,-0.11963 -0.27344,-0.11963 -0.5896,-0.40161 z"
           style="font-size:17.5px;font-family:'Bebas Neue';fill:#ffffff"
           id="path166" />
        <path
           d="m 744.23328,752.11609 v 0.76904 h -7.22901 q 0.10254,1.62354 0.97412,2.47803 0.88013,0.84595 2.44385,0.84595 0.90576,0 1.75171,-0.22217 0.85449,-0.22217 1.69189,-0.66651 v 1.48682 q -0.84594,0.35889 -1.73461,0.54688 -0.88868,0.18798 -1.80298,0.18798 -2.29004,0 -3.63159,-1.333 -1.33301,-1.33301 -1.33301,-3.60596 0,-2.34985 1.26465,-3.72559 1.27319,-1.38427 3.42651,-1.38427 1.93115,0 3.05054,1.24755 1.12793,1.23902 1.12793,3.37525 z m -1.57227,-0.46143 q -0.0171,-1.29028 -0.72632,-2.05932 -0.70068,-0.76905 -1.86279,-0.76905 -1.31592,0 -2.1106,0.74341 -0.78613,0.74341 -0.90576,2.09351 z"
           style="font-size:17.5px;font-family:'Bebas Neue';fill:#ffffff"
           id="path168" />
        <path
           d="m 752.91492,748.00598 v 1.48682 q -0.66651,-0.3418 -1.38428,-0.5127 -0.71777,-0.1709 -1.48682,-0.1709 -1.17065,0 -1.76025,0.35889 -0.58106,0.35889 -0.58106,1.07666 0,0.54688 0.41871,0.86304 0.4187,0.30762 1.68335,0.5896 l 0.53833,0.11963 q 1.6748,0.35888 2.37548,1.01684 0.70923,0.64942 0.70923,1.82007 0,1.33301 -1.05957,2.1106 -1.05102,0.77758 -2.89673,0.77758 -0.76904,0 -1.60644,-0.1538 -0.82886,-0.14527 -1.75171,-0.44434 v -1.62354 q 0.87158,0.45289 1.71753,0.6836 0.84595,0.22217 1.6748,0.22217 1.11084,0 1.70899,-0.37598 0.59814,-0.38452 0.59814,-1.07666 0,-0.64087 -0.43579,-0.98267 -0.42725,-0.34179 -1.88843,-0.65796 l -0.54687,-0.12817 q -1.46118,-0.30762 -2.1106,-0.93994 -0.64941,-0.64087 -0.64941,-1.75171 0,-1.3501 0.95703,-2.08496 0.95703,-0.73486 2.71728,-0.73486 0.87159,0 1.64063,0.12817 0.76904,0.12817 1.41846,0.38452 z"
           style="font-size:17.5px;font-family:'Bebas Neue';fill:#ffffff"
           id="path170" />
        <path
           d="m 769.69714,752.11609 v 0.76904 h -7.229 q 0.10254,1.62354 0.97412,2.47803 0.88013,0.84595 2.44385,0.84595 0.90576,0 1.75171,-0.22217 0.85449,-0.22217 1.69189,-0.66651 v 1.48682 q -0.84595,0.35889 -1.73462,0.54688 -0.88867,0.18798 -1.80298,0.18798 -2.29003,0 -3.63159,-1.333 -1.33301,-1.33301 -1.33301,-3.60596 0,-2.34985 1.26465,-3.72559 1.2732,-1.38427 3.42652,-1.38427 1.93115,0 3.05053,1.24755 1.12793,1.23902 1.12793,3.37525 z m -1.57226,-0.46143 q -0.0171,-1.29028 -0.72632,-2.05932 -0.70068,-0.76905 -1.86279,-0.76905 -1.31592,0 -2.1106,0.74341 -0.78613,0.74341 -0.90576,2.09351 z"
           style="font-size:17.5px;font-family:'Bebas Neue';fill:#ffffff"
           id="path172" />
        <path
           d="m 779.72888,749.56116 q 0.5896,-1.05957 1.40991,-1.56372 0.82032,-0.50415 1.93116,-0.50415 1.49536,0 2.30713,1.05102 0.81176,1.04248 0.81176,2.97363 v 5.77637 h -1.58081 v -5.7251 q 0,-1.37573 -0.48706,-2.04223 -0.48706,-0.66651 -1.48681,-0.66651 -1.22193,0 -1.93116,0.81177 -0.70923,0.81177 -0.70923,2.21314 v 5.40893 h -1.58081 v -5.7251 q 0,-1.38427 -0.48706,-2.04223 -0.48706,-0.66651 -1.5039,-0.66651 -1.20484,0 -1.91407,0.82032 -0.70922,0.81176 -0.70922,2.20459 v 5.40893 H 772.2179 V 747.724 h 1.58081 v 1.48682 q 0.53833,-0.88013 1.29028,-1.29883 0.75195,-0.4187 1.78589,-0.4187 1.04248,0 1.7688,0.52978 0.73486,0.52979 1.0852,1.53809 z"
           style="font-size:17.5px;font-family:'Bebas Neue';fill:#ffffff"
           id="path174" />
        <path
           d="m 798.26282,757.29431 -4.87061,-12.75757 h 1.80298 l 4.04175,10.74097 4.05029,-10.74097 h 1.79444 l -4.86207,12.75757 z"
           style="font-size:17.5px;font-family:'Bebas Neue';fill:#ffffff"
           id="path176" />
        <path
           d="m 813.6864,752.11609 v 0.76904 h -7.229 q 0.10254,1.62354 0.97412,2.47803 0.88013,0.84595 2.44385,0.84595 0.90576,0 1.75171,-0.22217 0.85449,-0.22217 1.69189,-0.66651 v 1.48682 q -0.84595,0.35889 -1.73462,0.54688 -0.88867,0.18798 -1.80298,0.18798 -2.29004,0 -3.63159,-1.333 -1.33301,-1.33301 -1.33301,-3.60596 0,-2.34985 1.26465,-3.72559 1.27319,-1.38427 3.42651,-1.38427 1.93116,0 3.05054,1.24755 1.12793,1.23902 1.12793,3.37525 z m -1.57226,-0.46143 q -0.0171,-1.29028 -0.72632,-2.05932 -0.70069,-0.76905 -1.8628,-0.76905 -1.31591,0 -2.11059,0.74341 -0.78613,0.74341 -0.90576,2.09351 z"
           style="font-size:17.5px;font-family:'Bebas Neue';fill:#ffffff"
           id="path178" />
        <path
           d="m 824.22229,751.51794 v 5.77637 h -1.57227 v -5.7251 q 0,-1.35864 -0.52978,-2.03369 -0.52979,-0.67505 -1.58936,-0.67505 -1.27319,0 -2.00805,0.81177 -0.73487,0.81177 -0.73487,2.21314 v 5.40893 h -1.58081 V 747.724 h 1.58081 v 1.48682 q 0.56397,-0.86304 1.32447,-1.29029 0.76904,-0.42724 1.7688,-0.42724 1.64917,0 2.49511,1.02539 0.84595,1.01684 0.84595,2.99926 z"
           style="font-size:17.5px;font-family:'Bebas Neue';fill:#ffffff"
           id="path180" />
        <path
           d="m 833.67297,749.17664 v -5.17823 h 1.57227 v 13.2959 h -1.57227 v -1.43555 q -0.4956,0.8545 -1.2561,1.2732 -0.75195,0.41015 -1.81152,0.41015 -1.73462,0 -2.82837,-1.38427 -1.08521,-1.38428 -1.08521,-3.64014 0,-2.25586 1.08521,-3.64014 1.09375,-1.38427 2.82837,-1.38427 1.05957,0 1.81152,0.4187 0.7605,0.41015 1.2561,1.26465 z m -5.35766,3.34106 q 0,1.73462 0.70923,2.72583 0.71777,0.98267 1.96533,0.98267 1.24756,0 1.96533,-0.98267 0.71777,-0.99121 0.71777,-2.72583 0,-1.73462 -0.71777,-2.71728 -0.71777,-0.99122 -1.96533,-0.99122 -1.24756,0 -1.96533,0.99122 -0.70923,0.98266 -0.70923,2.71728 z"
           style="font-size:17.5px;font-family:'Bebas Neue';fill:#ffffff"
           id="path182" />
        <path
           d="m 842.83313,752.48352 q -1.90552,0 -2.64038,0.43579 -0.73486,0.43579 -0.73486,1.48682 0,0.8374 0.54687,1.33301 0.55542,0.48706 1.50391,0.48706 1.30737,0 2.0935,-0.92286 0.79468,-0.93139 0.79468,-2.46948 v -0.35034 z m 3.13599,-0.64941 v 5.4602 h -1.57227 v -1.45264 q -0.53833,0.87159 -1.34155,1.29029 -0.80322,0.41015 -1.96533,0.41015 -1.46973,0 -2.34131,-0.82031 -0.86304,-0.82886 -0.86304,-2.21313 0,-1.61499 1.07666,-2.43531 1.08521,-0.82031 3.22998,-0.82031 h 2.20459 v -0.15381 q 0,-1.0852 -0.71777,-1.6748 -0.70923,-0.59815 -1.99951,-0.59815 -0.82032,0 -1.5979,0.19654 -0.77759,0.19653 -1.49537,0.5896 v -1.45264 q 0.86304,-0.33325 1.67481,-0.49561 0.81177,-0.17089 1.58081,-0.17089 2.07641,0 3.10181,1.07666 1.02539,1.07666 1.02539,3.26416 z"
           style="font-size:17.5px;font-family:'Bebas Neue';fill:#ffffff"
           id="path184" />
        <path
           d="m 855.31726,748.00598 v 1.48682 q -0.6665,-0.3418 -1.38428,-0.5127 -0.71777,-0.1709 -1.48681,-0.1709 -1.17066,0 -1.76026,0.35889 -0.58105,0.35889 -0.58105,1.07666 0,0.54688 0.4187,0.86304 0.4187,0.30762 1.68335,0.5896 l 0.53833,0.11963 q 1.6748,0.35888 2.37549,1.01684 0.70923,0.64942 0.70923,1.82007 0,1.33301 -1.05957,2.1106 -1.05103,0.77758 -2.89673,0.77758 -0.76905,0 -1.60645,-0.1538 -0.82886,-0.14527 -1.75171,-0.44434 v -1.62354 q 0.87158,0.45289 1.71753,0.6836 0.84595,0.22217 1.67481,0.22217 1.11084,0 1.70898,-0.37598 0.59815,-0.38452 0.59815,-1.07666 0,-0.64087 -0.4358,-0.98267 -0.42724,-0.34179 -1.88842,-0.65796 l -0.54688,-0.12817 q -1.46118,-0.30762 -2.11059,-0.93994 -0.64942,-0.64087 -0.64942,-1.75171 0,-1.3501 0.95703,-2.08496 0.95703,-0.73486 2.71729,-0.73486 0.87158,0 1.64062,0.12817 0.76905,0.12817 1.41846,0.38452 z"
           style="font-size:17.5px;font-family:'Bebas Neue';fill:#ffffff"
           id="path186" />
      </g>
    </g>
  </g>
</svg>
