<?xml version="1.0" encoding="UTF-8" standalone="no"?>
<svg
   xmlns:dc="http://purl.org/dc/elements/1.1/"
   xmlns:cc="http://creativecommons.org/ns#"
   xmlns:rdf="http://www.w3.org/1999/02/22-rdf-syntax-ns#"
   xmlns:svg="http://www.w3.org/2000/svg"
   xmlns="http://www.w3.org/2000/svg"
   xmlns:xlink="http://www.w3.org/1999/xlink"
   version="1.1"
   width="364.10516"
   height="139.58405"
   id="svg137"
   viewBox="0 0 364.10517 139.58405">
  <metadata
     id="metadata143">
    <rdf:RDF>
      <cc:Work
         rdf:about="">
        <dc:format>image/svg+xml</dc:format>
        <dc:type
           rdf:resource="http://purl.org/dc/dcmitype/StillImage" />
        <dc:title></dc:title>
      </cc:Work>
    </rdf:RDF>
  </metadata>
  <defs
     id="defs141" />
  <g
     transform="translate(-484.27607,-438.20185)"
     id="Layer1009">
    <path
       id="path108"
       style="fill:#1c1d17;fill-rule:evenodd"
       d="m 613.3072,489.918 c -2.0391,-10.6444 -6.6911,-21.0324 -14.3094,-30.0376 -1.6778,-1.8438 -3.4127,-3.6026 -5.0851,-5.3494 -3.3529,-3.1868 -7.1282,-6.1438 -11.3764,-8.798 -4.1964,-2.241 -8.5508,-3.9745 -12.9863,-5.2166 9.935,3.2201 18.1763,8.4167 24.7652,14.8754 -5.0001,-2.3088 -10.7427,-3.1005 -17.2598,-2.7312 -8.337,-6.8598 -18.0462,-11.4321 -28.8062,-12.2212 5.5048,-1.6207 9.2682,-1.8863 11.8572,-1.804 2.0285,0.2471 4.0529,0.5872 6.0615,1.0348 -0.9405,-0.3135 -2.241,-0.5805 -3.2068,-0.8036 l -3.1868,-0.4225 -2.7604,-0.2417 c -2.2516,-0.005 -6.1093,-0.0186 -12.71,2.1134 -3.6691,0.0479 -7.451,0.538 -11.3326,1.5237 3.4884,-0.813 6.9143,-1.1809 10.2619,-1.1663 -3.9135,1.3417 -8.7262,3.406 -14.6655,6.6021 -5.6935,0.0213 -10.5527,1.804 -14.6854,4.2894 3.9082,-2.2065 8.2799,-3.5043 13.1126,-3.4286 -4.0064,2.2158 -8.5004,4.9243 -13.5376,8.2334 -2.071,-0.097 -4.1181,0.356 -6.1545,1.4572 1.6074,-0.716 3.2506,-0.9113 4.9377,-0.6562 -3.0859,2.0537 -6.3737,4.3279 -9.87,6.8479 -0.364,-0.1661 -0.7213,-0.2206 -1.0707,-0.1382 1.5184,-1.8239 3.046,-3.5481 4.579,-5.1701 0.4755,-0.3228 0.9485,-0.627 1.424,-0.8834 -0.3972,0.178 -0.7944,0.3906 -1.1876,0.6283 1.9687,-2.0669 3.9454,-3.9692 5.93,-5.7001 0.5978,-0.4078 1.2048,-0.8103 1.8371,-1.1902 -0.5433,0.3055 -1.0693,0.6403 -1.5927,0.9817 2.0192,-1.7495 4.045,-3.3237 6.0708,-4.7092 0.4875,-0.2949 0.9777,-0.5858 1.4652,-0.8648 -0.3242,0.1687 -0.6456,0.3441 -0.9698,0.5141 0.005,-0.005 0.009,-0.007 0.016,-0.009 -0.008,0.003 -0.016,0.009 -0.0266,0.0146 -0.1899,0.0997 -0.3799,0.1953 -0.5699,0.3029 l -3.1111,2.0404 c -0.1089,0.085 -0.2112,0.1661 -0.3201,0.2458 0.2444,-0.1754 0.4981,-0.3467 0.7519,-0.5208 0.5552,-0.356 1.1411,-0.7319 1.7601,-1.1118 -1.0747,0.7 -2.1387,1.4187 -3.1722,2.1878 -1.1052,0.914 -2.2477,1.8956 -3.4379,2.9783 -0.7877,0.5712 -1.5595,1.1743 -2.3087,1.8146 0.3121,-0.3029 0.5938,-0.5991 0.9205,-0.8967 -0.4795,0.4251 -0.9405,0.8595 -1.3961,1.2939 -0.6031,0.5313 -1.1902,1.0826 -1.7628,1.6472 0.3122,-0.2896 0.6456,-0.5792 0.9711,-0.8701 -1.0375,1.0428 -2.0444,2.1559 -3.0885,3.4153 -0.36,0.3294 -0.7227,0.6881 -1.0813,1.0746 0.4994,-0.6057 1.1038,-1.3177 1.8889,-2.237 -0.8342,0.9193 -1.424,1.6114 -2.0098,2.3592 -0.1408,0.1608 -0.287,0.2963 -0.4304,0.4663 0.1049,-0.1182 0.2138,-0.2139 0.3241,-0.3215 -0.0492,0.0598 -0.0956,0.1196 -0.1421,0.182 0.0571,-0.0744 0.1235,-0.1514 0.1846,-0.2285 0.3255,-0.3307 0.6536,-0.6522 0.9817,-0.9498 -0.724,0.8821 -1.4652,1.8332 -2.2556,2.8933 0.7904,-1.0176 1.6366,-2.0657 2.5239,-3.1244 0.36,-0.3148 0.7187,-0.6124 1.0787,-0.8874 -1.2567,1.3895 -2.5731,2.9331 -3.96,4.6707 -0.0597,0.0239 -0.1182,0.0411 -0.1766,0.0664 0.1766,-0.2431 0.36,-0.4915 0.534,-0.7253 -0.1953,0.2484 -0.3826,0.4928 -0.5752,0.7399 -0.0292,0.0146 -0.0638,0.0173 -0.093,0.0332 0.7014,-1.0308 1.25,-1.8172 1.7575,-2.4881 -0.7413,0.9113 -1.2474,1.6074 -1.8797,2.5585 -0.0173,0.008 -0.0332,0.0306 -0.0545,0.0399 0.4769,-0.7346 0.9644,-1.4599 1.4201,-2.0816 0.1102,-0.1276 0.2192,-0.2511 0.3321,-0.3773 -0.0731,0.0731 -0.1448,0.1355 -0.2152,0.2099 l -0.1727,0.2192 -0.1196,0.1501 c -0.3958,0.5685 -0.8515,1.2367 -1.2898,1.9169 -0.1342,0.089 -0.2684,0.174 -0.4025,0.3002 l -0.2073,0.2869 c -0.2006,0.4038 -0.4583,0.9445 -0.5951,1.3762 0.19,-0.4397 0.4317,-0.9936 0.6868,-1.44 0.1036,-0.0876 0.2112,-0.162 0.3175,-0.2098 -0.3653,0.5725 -0.716,1.1437 -1.0043,1.6498 0.3069,-0.5048 0.6629,-1.0786 1.0308,-1.6565 0.009,-10e-4 0.0186,-10e-4 0.0279,-0.007 -0.3082,0.4742 -0.6469,1.0056 -1.0587,1.6631 0.4317,-0.6416 0.7984,-1.1862 1.1371,-1.6857 0.0133,-0.003 0.0252,-0.008 0.0385,-0.009 -0.3998,0.5539 -0.793,1.1185 -1.1756,1.695 0.4264,-0.6031 0.8342,-1.165 1.2314,-1.7109 0.0425,-0.009 0.0837,-0.02 0.1236,-0.02 -0.4477,0.5673 -0.8901,1.1199 -1.355,1.7309 0.4689,-0.5924 0.9418,-1.1517 1.4121,-1.7256 0.2112,0.005 0.4251,0.0758 0.6482,0.2285 -0.6854,0.4982 -1.3602,0.9817 -2.0603,1.4971 0.7811,-0.4118 1.5436,-0.8528 2.3141,-1.2779 1.0481,0.9551 2.2463,3.4578 3.7553,7.439 -5.3348,0.5818 -8.2812,-0.817 -6.0694,-6.1611 -2.9849,6.9834 0.4477,8.9268 6.889,8.3795 0.4676,1.2926 0.9578,2.69 1.4839,4.2243 2.2436,6.5171 4.5311,12.5148 6.8478,18.0595 -8.2573,-0.4012 -14.0995,-2.1613 -17.5082,-5.2857 -1.165,-9.0397 -0.9817,-16.8812 0.4331,-21.9875 0.1899,-0.3693 0.3812,-0.7479 0.5473,-1.0627 0.4118,-0.7625 0.8422,-1.5343 1.3071,-2.3274 -0.1528,0.2564 -0.3015,0.5128 -0.453,0.7678 0.2564,-0.4529 0.4211,-0.7213 0.453,-0.7678 -0.5247,0.7639 -1.0375,1.5529 -1.5383,2.3606 0.0784,-0.2272 0.1554,-0.4557 0.2391,-0.6669 0.3879,-0.53 0.805,-1.0786 1.2992,-1.6937 -0.5008,0.6337 -0.9073,1.1557 -1.2846,1.6525 0.0678,-0.1753 0.1382,-0.344 0.2113,-0.5047 0.3201,-0.4172 0.708,-0.8608 1.0733,-1.1478 -0.3334,0.2338 -0.7612,0.5938 -0.9857,0.9326 l -0.3719,0.5964 c -0.089,0.1767 -0.1754,0.3746 -0.2591,0.5672 -0.5698,0.7798 -1.0574,1.521 -1.5781,2.4748 0.4424,-0.7784 0.9418,-1.5529 1.5423,-2.3911 -0.1461,0.3348 -0.2883,0.6868 -0.4198,1.0667 -1.3948,2.3367 -2.674,4.8433 -3.7965,7.4589 0.2896,-0.8873 0.5499,-1.6206 0.7479,-2.1506 0.7996,-1.7694 1.3881,-2.9956 1.9261,-3.9839 -0.8621,1.5157 -1.5569,3.0766 -2.5518,5.3255 -0.3494,0.9339 -0.7293,2.0245 -1.1132,3.2466 -0.7519,1.9754 -1.4108,4.0025 -1.9554,6.0602 0.0305,0.5605 0.0956,1.5236 0.2218,2.7909 0.8994,-4.1924 2.2012,-8.1204 3.5229,-11.4627 -2.1905,6.4162 -2.2689,12.382 1.521,16.7909 0.7439,8.0647 2.4841,17.0247 5.4531,25.7761 1.529,2.0736 3.2758,3.9852 5.2684,5.6417 -4.4422,-9.8235 -7.3779,-20.2646 -8.9215,-29.7015 3.6611,2.9663 9.6335,4.9668 18.6493,5.546 v 0 c 5.368,12.2345 10.8942,22.0181 16.4601,29.7108 1.2514,-0.174 2.5027,-0.3812 3.7501,-0.619 -5.6616,-7.4642 -11.3445,-16.9915 -16.941,-28.947 7.5572,0.186 17.0101,-0.5287 28.6919,-2.3486 0.5726,0.8768 1.1531,1.7601 1.7389,2.6515 4.1552,6.3404 8.7329,13.3158 13.5961,19.6974 1.258,-0.5686 2.431,-1.1198 3.507,-1.6379 -4.0822,-5.4942 -8.0169,-11.4215 -11.7244,-17.0114 -0.9884,-1.4878 -1.9554,-2.9451 -2.9172,-4.3877 0.8303,-0.1435 1.6339,-0.2723 2.4828,-0.4211 1.6565,-0.2962 3.3024,-0.5911 4.9336,-0.8807 l -0.005,-0.008 -0.0545,-0.0877 -0.0199,-0.0332 -0.0159,-0.0252 -0.0106,-0.0199 -0.008,-0.0107 -0.001,-0.003 h 0.001 l 0.005,-0.003 h 10e-4 l 0.0107,-0.003 h 0.0106 l 0.005,-10e-4 0.0199,-0.005 0.0133,-0.001 0.0106,-10e-4 0.0293,-0.007 0.0132,-10e-4 0.02,-0.004 0.0385,-0.005 0.0119,-0.004 0.0306,-0.004 0.0465,-0.008 0.008,-10e-4 0.0438,-0.008 0.0571,-0.012 h 10e-4 l 0.0598,-0.009 0.0585,-0.009 0.008,-0.004 0.1262,-0.0199 0.0213,-0.005 0.081,-0.012 0.0505,-0.008 0.0359,-0.007 0.0903,-0.0159 0.0425,-0.007 0.0531,-0.009 0.101,-0.0159 0.0319,-0.007 0.0744,-0.012 0.1116,-0.0186 0.0186,-0.003 0.0969,-0.0159 0.1222,-0.0213 h 0.004 l 0.1222,-0.0185 0.1183,-0.0213 0.0146,-0.001 0.1368,-0.0226 0.1063,-0.0173 0.0372,-0.004 0.1488,-0.0239 0.0916,-0.0146 0.0611,-0.0106 0.1594,-0.0239 0.0757,-0.0133 0.089,-0.0146 0.1701,-0.0253 0.0558,-0.009 0.1195,-0.0199 0.182,-0.0266 0.0332,-0.007 0.1541,-0.0213 0.1913,-0.0292 0.009,-10e-4 0.19,-0.0306 0.1846,-0.0265 0.0199,-0.004 0.2099,-0.0319 0.1634,-0.0252 0.0518,-0.008 0.2219,-0.0332 0.1408,-0.0213 0.0863,-0.0106 0.2338,-0.0345 0.1143,-0.0186 0.1248,-0.0186 0.2458,-0.0346 0.085,-0.0133 0.166,-0.0252 0.2578,-0.0372 0.0531,-0.005 0.2099,-0.0306 0.4795,-0.0704 0.0664,-0.009 0.2604,-0.0372 0.0226,-0.003 0.2883,-0.0399 0.2298,-0.0332 0.0651,-0.008 0.3002,-0.0425 0.1966,-0.0293 0.1102,-0.0159 0.3149,-0.0412 0.1594,-0.0226 0.1607,-0.0239 0.3268,-0.0438 0.1195,-0.016 0.2139,-0.0292 0.3388,-0.0478 0.077,-0.009 0.2697,-0.0372 c 3.2107,-0.5141 6.3351,-0.9737 9.3439,-1.3497 l 0.0877,0.1409 0.0544,-0.007 0.0532,-0.008 0.0544,-0.007 0.0532,-0.007 0.0544,-0.005 0.0532,-0.007 0.0544,-0.007 0.0545,-0.007 0.0544,-0.007 0.0545,-0.005 0.0531,-0.008 0.0492,-0.005 0.005,-0.001 0.0545,-0.007 0.0558,-0.007 0.0544,-0.007 0.0545,-0.005 0.0558,-0.007 0.0545,-0.007 0.0544,-0.008 0.0558,-0.008 0.0545,-0.007 0.0558,-0.005 0.0558,-0.007 0.0557,-0.007 0.0545,-0.008 0.0558,-0.007 0.0558,-0.007 0.0558,-0.005 0.0558,-0.007 0.0252,-0.004 0.0319,-0.003 0.0558,-0.008 0.0558,-0.007 0.0558,-0.007 0.0571,-0.008 0.0558,-0.005 0.0571,-0.007 0.0558,-0.007 0.0571,-0.008 0.0571,-0.007 0.0558,-0.007 0.0572,-0.005 0.0571,-0.008 0.0571,-0.007 0.0571,-0.007 0.0571,-0.008 0.0572,-0.007 0.0571,-0.005 h 10e-4 l 0.0571,-0.008 0.0572,-0.007 0.0584,-0.007 0.0571,-0.008 0.0585,-0.007 0.0571,-0.008 0.0584,-0.007 0.0585,-0.005 0.0584,-0.007 0.0585,-0.007 0.0584,-0.008 0.0572,-0.008 0.0597,-0.007 0.0585,-0.007 0.0584,-0.005 0.0585,-0.008 0.0598,-0.007 -0.0731,-0.1222 c 1.5184,-0.1581 3.0022,-0.2883 4.4461,-0.3892 l 0.016,-10e-4 0.1634,-0.0172 0.1806,-0.0226 0.1794,-0.0186 0.182,-0.0226 0.1819,-0.0186 0.182,-0.0212 0.0877,-0.009 0.0957,-0.012 0.1846,-0.0199 0.1846,-0.0226 0.1847,-0.0199 0.186,-0.0213 0.1873,-0.0226 0.162,-0.0172 0.0253,-10e-4 0.1873,-0.0225 0.1886,-0.0213 0.19,-0.0199 0.1899,-0.0226 0.19,-0.0199 0.1926,-0.0226 0.0492,-0.007 0.1421,-0.0159 0.1926,-0.0213 0.194,-0.0199 0.1939,-0.0226 0.1953,-0.0225 0.1952,-0.02 0.1289,-0.0146 0.0678,-0.008 0.1966,-0.0225 0.1979,-0.0226 0.1992,-0.0199 0.198,-0.0226 0.2006,-0.0226 0.2005,-0.0226 0.008,-10e-4 0.1926,-0.0199 0.2019,-0.0226 0.2033,-0.0226 0.2032,-0.0226 0.2033,-0.0213 0.2046,-0.0212 0.0903,-0.0106 0.1156,-0.0133 0.2059,-0.0226 0.2072,-0.0213 0.2072,-0.0225 0.2086,-0.0226 0.2085,-0.0239 0.174,-0.0173 0.0359,-0.005 0.2099,-0.0226 0.2112,-0.0213 0.2126,-0.0239 0.425,-0.0465 0.2139,-0.0225 0.0465,-0.004 0.1687,-0.0199 0.2152,-0.0226 0.2165,-0.0239 0.2166,-0.0213 0.2178,-0.0239 0.2179,-0.0226 0.1328,-0.0159 0.0864,-0.008 0.2192,-0.0239 0.2205,-0.0239 0.2218,-0.0239 0.2218,-0.0226 0.2219,-0.0239 0.2232,-0.0239 0.1341,-0.012 0.1342,-0.0146 0.1328,-0.0159 0.1329,-0.0133 0.1315,-0.0133 0.1328,-0.0133 0.1315,-0.0159 0.1329,-0.0133 0.1302,-0.012 0.1315,-0.0159 0.089,-0.008 0.0411,-0.005 0.1316,-0.012 0.1288,-0.0146 0.1302,-0.0146 0.1302,-0.0119 0.1288,-0.0133 0.6416,-0.0664 0.0452,-0.005 0.0824,-0.009 0.2537,-0.0252 0.1262,-0.0146 0.1262,-0.0133 0.1262,-0.0119 0.1249,-0.0147 0.1248,-0.0106 0.1262,-0.0133 0.1236,-0.0146 0.1248,-0.0119 h 0.004 l 0.1196,-0.0133 0.1248,-0.0133 0.1236,-0.0106 0.1222,-0.0146 0.1235,-0.0107 0.1222,-0.0146 0.1223,-0.0106 0.1222,-0.0146 0.1209,-0.0107 0.1222,-0.0132 0.085,-0.008 0.0359,-0.005 0.1208,-0.0106 0.1209,-0.0133 0.1196,-0.0107 0.1195,-0.0146 0.1196,-0.0106 0.1195,-0.0133 0.1196,-0.0106 0.1182,-0.0133 0.1196,-0.0106 0.1169,-0.0133 0.0451,-0.003 0.0731,-0.008 0.1182,-0.0133 0.1169,-0.0106 0.1169,-0.0133 0.1169,-0.0107 0.1156,-0.0106 0.1169,-0.0133 0.1156,-0.0106 0.1155,-0.0133 0.1143,-0.009 0.1155,-0.0133 c -1.792,-0.9258 -3.8828,-1.6153 -6.2673,-2.0882 -4.8154,-11.9117 -12.0698,-23.4448 -21.2543,-32.2188 6.3922,-0.1275 12.2398,0.7957 17.1376,3.2638 v 0 c 7.524,8.8126 12.3487,19.4809 14.4954,30.6394 l 0.542,-0.0545 z M 504.3936,459.7462 v 0 c 1.0707,-1.2619 2.2517,-2.5465 3.5654,-3.8483 0.7586,-0.6509 1.5622,-1.2885 2.3898,-1.9169 -1.5515,1.4294 -3.1855,3.0447 -4.9416,4.9669 -0.3401,0.2417 -0.6775,0.5061 -1.0136,0.7983 z m 74.0287,-3.56 v 0 c 9.2297,8.6225 16.7444,19.975 21.9078,31.8043 -5.3547,-0.7784 -12.0445,-0.6164 -20.0574,0.2737 -6.622,-10.594 -14.3878,-20.8226 -23.2296,-28.3107 7.3474,-1.9315 14.6203,-3.3715 21.3792,-3.7673 z m -1.9355,32.5323 v 0 c -7.0378,0.9219 -14.9882,2.3194 -23.8858,4.0835 -1.0388,0.2059 -2.0457,0.3945 -3.0566,0.5858 -6.8187,-10.1728 -12.9266,-18.9137 -18.5882,-25.3444 0.6801,-0.2245 1.3563,-0.4503 2.0311,-0.6735 6.5862,-2.1865 13.5642,-4.5019 20.5476,-6.4653 7.0471,6.3537 14.6933,15.4094 22.9519,27.8139 z m -37.2521,-44.9767 v 0 c 2.8747,-1.2354 5.4199,-2.1733 7.702,-2.8986 10.1211,0.9179 19.4676,5.3734 27.6532,12.0034 -6.2807,0.607 -13.2375,2.1706 -20.9129,4.4089 -8.422,-6.3112 -15.7547,-9.1739 -22.1151,-9.8181 2.5107,-1.3098 5.0519,-2.5745 7.6728,-3.6956 z m -9.3917,4.5882 v 0 c 6.1411,0.7718 12.9877,3.7674 20.5635,9.9059 -6.4852,1.9899 -13.4513,4.3969 -20.9248,7.0604 -0.2591,0.089 -0.5194,0.1859 -0.7785,0.2749 -4.5989,-4.8074 -8.9122,-7.9331 -13.09,-8.8989 4.6853,-2.8733 9.3865,-5.7306 14.2298,-8.3423 z m -22.3064,23.676 v 0 c -1.8717,-4.1924 -3.3701,-6.7589 -4.7224,-7.7273 3.8018,-2.1307 7.5346,-4.3797 11.2515,-6.6592 3.5773,1.2102 7.3818,4.3491 11.5503,9.0463 -6.3829,2.2477 -12.9996,4.4475 -18.0794,5.3402 z m 4.8938,12.0086 v 0 c -1.4705,-3.7832 -2.7591,-7.0258 -3.9134,-9.7517 5.36,-0.805 12.2451,-2.8906 19.182,-5.1502 5.2444,6.3564 11.0694,14.9325 17.722,25.0177 -10.9366,1.9009 -20.1424,2.8135 -27.6239,2.7564 -1.7986,-4.0317 -3.5906,-8.3091 -5.3667,-12.8722 z m 15.0029,46.9574 c -7.3899,-0.7705 -13.4354,-2.2477 -18.3451,-4.2588 4.0981,2.69 9.0995,4.3531 15.2101,4.3531 1.0388,0 2.0842,-0.0319 3.135,-0.0943 z m -30.5252,-60.0526 v 0 c -1.2168,4.4952 -1.7255,11.1491 -1.2872,18.8751 -2.9968,-4.1738 -2.7218,-10.1782 0.8728,-18.0197 0.1461,-0.3081 0.2763,-0.5659 0.4144,-0.8554 z m 12.4497,-16.3871 v 0 c 1.5848,-1.4107 3.3436,-2.8149 5.4863,-4.4514 -2.0869,1.4891 -3.8882,2.9795 -5.4863,4.4514 z m 12.6623,-8.7421 v 0 c -0.6855,0.3374 -1.436,0.7478 -2.1945,1.1822 4.4926,-2.3592 8.8803,-4.0463 13.1457,-5.1329 -3.5866,0.8435 -7.2424,2.1281 -10.9512,3.9507 z m -15.8212,11.6832 v 0 c -0.0943,0.0863 -0.1913,0.1727 -0.2829,0.259 l -0.6828,0.7187 c -0.1289,0.1541 -0.2245,0.2656 -0.3441,0.4051 0.2073,-0.2285 0.457,-0.4995 0.7001,-0.7651 0.2019,-0.2073 0.4038,-0.4158 0.6097,-0.6177 z" />
    <defs
       id="defs122">
      <linearGradient
         id="grad9">
        <stop
           id="stop110"
           stop-opacity="1.0000"
           stop-color="#565757"
           offset="3435993547.0000%" />
        <stop
           id="stop112"
           stop-opacity="1.0000"
           stop-color="#000000"
           offset="12.0000%" />
        <stop
           id="stop114"
           stop-opacity="1.0000"
           stop-color="#d6d6d6"
           offset="0.0000%" />
        <stop
           id="stop116"
           stop-opacity="1.0000"
           stop-color="#ffffff"
           offset="83890432.0000%" />
        <stop
           id="stop118"
           stop-opacity="1.0000"
           stop-color="#ffffff"
           offset="0.0000%" />
      </linearGradient>
      <linearGradient
         gradientUnits="userSpaceOnUse"
         gradientTransform="scale(1.2471776,0.80181043)"
         y2="679.5094"
         x2="388.72394"
         y1="604.60486"
         x1="388.72394"
         id="grad10"
         xlink:href="#grad9" />
    </defs>
    <path
       id="path124"
       style="fill:url(#grad10)"
       d="m 524.2983,531.0663 c 23.28,0 50.2451,-15.6777 50.2451,-15.6777 l 3.6836,3.3715 c 0,0 -33.5964,26.0776 -59.2343,26.0776 -25.638,0 -34.1849,-20.0746 -34.1849,-37.0661 0,-16.9928 5.7971,-22.9931 5.7971,-22.9931 0,0 1.4227,46.2878 33.6934,46.2878 z" />
    <path
       id="path126"
       style="fill:#000200;fill-rule:evenodd"
       d="m 575.6327,518.2646 c 0,0 -0.7399,-1.0242 -6.6327,-8.9374 -5.8941,-7.9106 -8.9879,-13.0369 -8.9879,-13.0369 0,0 10.1662,-1.9049 40.6687,-5.1276 30.5026,-3.2266 36.9838,-3.0792 36.9838,-3.0792 0,0 0.8847,4.397 -6.189,33.9896 -7.0737,29.5939 -12.0817,37.8007 -12.0817,37.8007 0,0 -1.9009,-0.801 -5.2711,-3.4511 -3.3754,-2.6515 -5.7174,-4.7889 -5.7174,-4.7889 0,0 -26.1361,26.1521 -57.1315,26.1521 -42.567,0 -67.8689,-42.2761 -66.9749,-64.5692 0.3295,-8.1802 0.9565,-11.302 0.9565,-11.302 0,0 -0.4198,3.0766 -0.0505,10.1941 0.3374,6.4932 4.9337,28.6641 32.0887,28.6641 27.1536,0 58.339,-22.5083 58.339,-22.5083 z" />
  </g>
  <g
     transform="translate(-484.27607,-438.20185)"
     id="Layer1010">
    <g
       id="text131"
       aria-label="ULTRA">
      <path
         id="path244"
         style="font-size:56px;font-family:'Bebas Neue';fill:#000200"
         d="m 679.99841,473.13788 h 5.55078 v 24.80078 q 0,6.5625 2.37891,9.46094 2.37891,2.87109 7.71094,2.87109 5.30469,0 7.68359,-2.87109 2.37891,-2.89844 2.37891,-9.46094 v -24.80078 h 5.55078 v 25.48437 q 0,7.98438 -3.96484,12.0586 -3.9375,4.07422 -11.64844,4.07422 -7.73828,0 -11.70313,-4.07422 -3.9375,-4.07422 -3.9375,-12.0586 z" />
      <path
         id="path246"
         style="font-size:56px;font-family:'Bebas Neue';fill:#000200"
         d="m 721.64294,473.13788 h 5.52344 v 36.17578 h 19.87891 v 4.64844 h -25.40235 z" />
      <path
         id="path248"
         style="font-size:56px;font-family:'Bebas Neue';fill:#000200"
         d="m 739.49841,473.13788 h 34.53516 v 4.64844 h -14.49219 v 36.17578 h -5.55078 v -36.17578 h -14.49219 z" />
      <path
         id="path250"
         style="font-size:56px;font-family:'Bebas Neue';fill:#000200"
         d="m 798.75232,494.82147 q 1.77734,0.60156 3.44531,2.57031 1.69531,1.96875 3.39063,5.41407 l 5.60547,11.15625 h -5.9336 l -5.22265,-10.47266 q -2.02344,-4.10156 -3.9375,-5.44141 -1.88672,-1.33984 -5.16797,-1.33984 h -6.01563 v 17.25391 h -5.52344 v -40.82422 h 12.46875 q 7,0 10.44532,2.92578 3.44531,2.92578 3.44531,8.83203 0,3.85547 -1.80469,6.39844 -1.77734,2.54297 -5.19531,3.52734 z m -13.83594,-17.14453 v 14.49219 h 6.94531 q 3.99219,0 6.01563,-1.83203 2.05078,-1.85938 2.05078,-5.44141 0,-3.58203 -2.05078,-5.38672 -2.02344,-1.83203 -6.01563,-1.83203 z" />
      <path
         id="path252"
         style="font-size:56px;font-family:'Bebas Neue';fill:#000200"
         d="m 829.6781,478.57928 -7.49219,20.31641 h 15.01172 z m -3.11719,-5.4414 h 6.26172 l 15.5586,40.82422 h -5.74219 l -3.71875,-10.47266 h -18.40235 l -3.71875,10.47266 h -5.82421 z" />
    </g>
    <path
       id="path133"
       style="fill:#000200;fill-rule:evenodd"
       d="m 678.1232,539.3704 c -0.9263,0 -1.6271,-0.2636 -2.1016,-0.7903 -0.4748,-0.5269 -0.7123,-1.2827 -0.7123,-2.2668 v -0.6948 h 1.8065 v 0.8337 c 0,0.7874 0.3299,1.1812 0.9901,1.1812 0.3243,0 0.5704,-0.0956 0.7382,-0.2866 0.1681,-0.1911 0.252,-0.5009 0.252,-0.9292 0,-0.5097 -0.116,-0.9584 -0.3476,-1.3465 -0.2316,-0.3878 -0.6599,-0.8538 -1.2852,-1.398 -0.7875,-0.6951 -1.3377,-1.3232 -1.6503,-1.8848 -0.3127,-0.5615 -0.4689,-1.1956 -0.4689,-1.902 0,-0.9613 0.2432,-1.7051 0.7294,-2.232 0.4864,-0.527 1.1928,-0.7903 2.1192,-0.7903 0.915,0 1.6066,0.2633 2.0758,0.7903 0.4688,0.5269 0.7035,1.2824 0.7035,2.2668 v 0.5038 h -1.8065 v -0.6254 c 0,-0.4169 -0.0811,-0.7208 -0.2432,-0.9119 -0.1621,-0.1913 -0.3994,-0.2868 -0.7121,-0.2868 -0.6369,0 -0.9555,0.388 -0.9555,1.1639 0,0.4399 0.1187,0.8512 0.356,1.2333 0.2376,0.3821 0.669,0.8453 1.2943,1.3896 0.7988,0.6947 1.349,1.326 1.6501,1.8932 0.301,0.5675 0.4515,1.2334 0.4515,1.9976 0,0.9961 -0.246,1.7603 -0.7381,2.2929 -0.4921,0.5327 -1.2073,0.7991 -2.1453,0.7991 z m 6.7397,0 c -0.938,0 -1.656,-0.2664 -2.1541,-0.7991 -0.498,-0.5326 -0.7469,-1.2855 -0.7469,-2.258 v -6.3922 c 0,-0.9728 0.2489,-1.7254 0.7469,-2.2583 0.4981,-0.5327 1.2161,-0.7988 2.1541,-0.7988 0.938,0 1.6557,0.2661 2.1537,0.7988 0.4981,0.5329 0.747,1.2855 0.747,2.2583 v 6.3922 c 0,0.9725 -0.2489,1.7254 -0.747,2.258 -0.498,0.5327 -1.2157,0.7991 -2.1537,0.7991 z m 0,-1.737 c 0.6599,0 0.9898,-0.3994 0.9898,-1.1985 v -6.6354 c 0,-0.7991 -0.3299,-1.1987 -0.9898,-1.1987 -0.6602,0 -0.9902,0.3996 -0.9902,1.1987 v 6.6354 c 0,0.7991 0.33,1.1985 0.9902,1.1985 z m 4.1859,-10.596 h 1.9108 v 10.4222 h 3.1439 v 1.7371 h -5.0547 z m 8.7548,12.333 c -0.9264,0 -1.6328,-0.2636 -2.1192,-0.7903 -0.4864,-0.5269 -0.7296,-1.2827 -0.7296,-2.2668 v -9.2759 h 1.9108 v 9.4148 c 0,0.4169 0.0839,0.718 0.2517,0.9034 0.1681,0.1851 0.4082,0.2778 0.7209,0.2778 0.3126,0 0.553,-0.0927 0.7208,-0.2778 0.1681,-0.1854 0.252,-0.4865 0.252,-0.9034 v -9.4148 h 1.8411 v 9.2759 c 0,0.9841 -0.2429,1.7399 -0.7293,2.2668 -0.4865,0.5267 -1.1928,0.7903 -2.1192,0.7903 z m 6.8958,0 c -0.9147,0 -1.6123,-0.2605 -2.0931,-0.7818 -0.4804,-0.521 -0.7208,-1.2563 -0.7208,-2.2059 v -6.5313 c 0,-0.9493 0.2404,-1.6849 0.7208,-2.2059 0.4808,-0.521 1.1784,-0.7815 2.0931,-0.7815 0.9151,0 1.6127,0.2605 2.0931,0.7815 0.4808,0.521 0.7212,1.2566 0.7212,2.2059 v 1.2855 h -1.8066 v -1.4071 c 0,-0.7526 -0.3186,-1.129 -0.9555,-1.129 -0.637,0 -0.9553,0.3764 -0.9553,1.129 v 6.7918 c 0,0.7413 0.3183,1.1118 0.9553,1.1118 0.6369,0 0.9555,-0.3705 0.9555,-1.1118 v -1.8587 h 1.8066 v 1.7198 c 0,0.9496 -0.2404,1.6849 -0.7212,2.2059 -0.4804,0.5213 -1.178,0.7818 -2.0931,0.7818 z m -0.1213,2.3797 c -0.5329,0 -0.9439,-0.0754 -1.2333,-0.2259 -0.2895,-0.1505 -0.4343,-0.411 -0.4343,-0.7815 v -0.1738 h 1.2852 v 0.1389 c 0,0.1159 0.0377,0.2027 0.1131,0.2605 0.0751,0.0581 0.165,0.087 0.2693,0.087 0.1619,0 0.2778,-0.032 0.3473,-0.0955 0.0694,-0.0638 0.1043,-0.1709 0.1043,-0.3214 0,-0.1622 -0.0522,-0.2778 -0.1565,-0.3473 -0.104,-0.0697 -0.2662,-0.1043 -0.4864,-0.1043 H 704.3 v -1.2334 h 0.8513 v 0.9207 c 0.3937,0 0.6919,0.0638 0.8946,0.1911 0.2024,0.1273 0.3039,0.3359 0.3039,0.6253 0,0.4283 -0.1449,0.7121 -0.4343,0.8513 -0.2894,0.1389 -0.7353,0.2083 -1.3374,0.2083 z m 6.8786,-2.3797 c -0.938,0 -1.656,-0.2664 -2.1541,-0.7991 -0.498,-0.5326 -0.7469,-1.2855 -0.7469,-2.258 v -6.3922 c 0,-0.9728 0.2489,-1.7254 0.7469,-2.2583 0.4981,-0.5327 1.2161,-0.7988 2.1541,-0.7988 0.9379,0 1.6557,0.2661 2.1537,0.7988 0.4981,0.5329 0.747,1.2855 0.747,2.2583 v 6.3922 c 0,0.9725 -0.2489,1.7254 -0.747,2.258 -0.498,0.5327 -1.2158,0.7991 -2.1537,0.7991 z m 0,-1.737 c 0.6599,0 0.9898,-0.3994 0.9898,-1.1985 v -6.6354 c 0,-0.7991 -0.3299,-1.1987 -0.9898,-1.1987 -0.6602,0 -0.9902,0.3996 -0.9902,1.1987 v 6.6354 c 0,0.7991 0.33,1.1985 0.9902,1.1985 z m -2.4146,-11.8985 c 0.22,-0.498 0.4575,-0.8657 0.7121,-1.1032 0.2548,-0.2373 0.5442,-0.356 0.8685,-0.356 0.2086,0 0.3909,0.0289 0.5474,0.087 0.1562,0.0578 0.3211,0.1389 0.4949,0.2429 0.1043,0.0581 0.2055,0.1103 0.3039,0.1565 0.0986,0.0462 0.1942,0.0694 0.2866,0.0694 0.1391,0 0.2608,-0.0521 0.3648,-0.1562 0.1043,-0.1043 0.2143,-0.278 0.3302,-0.5213 l 0.9204,0.5559 c -0.2199,0.4981 -0.4572,0.8657 -0.712,1.103 -0.2549,0.2375 -0.5443,0.356 -0.8686,0.356 -0.2083,0 -0.3909,-0.0289 -0.5471,-0.0867 -0.1564,-0.0579 -0.3214,-0.1389 -0.4952,-0.2432 -0.104,-0.0579 -0.2055,-0.11 -0.3038,-0.1562 -0.0984,-0.0465 -0.1939,-0.0695 -0.2866,-0.0695 -0.1389,0 -0.2605,0.0519 -0.3648,0.1562 -0.1044,0.1043 -0.2143,0.2781 -0.33,0.521 z m 6.6005,1.3025 h 5.2112 v 1.7371 h -3.3004 v 3.2137 h 2.6229 v 1.7367 h -2.6229 v 3.7347 h 3.3004 v 1.7371 h -5.2112 z m 8.824,12.333 c -0.9264,0 -1.6271,-0.2636 -2.1017,-0.7903 -0.4748,-0.5269 -0.7123,-1.2827 -0.7123,-2.2668 v -0.6948 h 1.8065 v 0.8337 c 0,0.7874 0.33,1.1812 0.9902,1.1812 0.3242,0 0.5703,-0.0956 0.7381,-0.2866 0.1681,-0.1911 0.252,-0.5009 0.252,-0.9292 0,-0.5097 -0.1159,-0.9584 -0.3475,-1.3465 -0.2316,-0.3878 -0.6599,-0.8538 -1.2853,-1.398 -0.7874,-0.6951 -1.3376,-1.3232 -1.6503,-1.8848 -0.3126,-0.5615 -0.4688,-1.1956 -0.4688,-1.902 0,-0.9613 0.2432,-1.7051 0.7293,-2.232 0.4864,-0.527 1.1928,-0.7903 2.1192,-0.7903 0.915,0 1.6067,0.2633 2.0758,0.7903 0.4689,0.5269 0.7036,1.2824 0.7036,2.2668 v 0.5038 h -1.8065 v -0.6254 c 0,-0.4169 -0.0811,-0.7208 -0.2433,-0.9119 -0.1621,-0.1913 -0.3994,-0.2868 -0.712,-0.2868 -0.637,0 -0.9556,0.388 -0.9556,1.1639 0,0.4399 0.1188,0.8512 0.356,1.2333 0.2376,0.3821 0.669,0.8453 1.2943,1.3896 0.7988,0.6947 1.3491,1.326 1.6501,1.8932 0.301,0.5675 0.4516,1.2334 0.4516,1.9976 0,0.9961 -0.2461,1.7603 -0.7382,2.2929 -0.4921,0.5327 -1.2073,0.7991 -2.1452,0.7991 z m 6.7566,-12.333 h 5.2112 v 1.7371 h -3.3004 v 3.2137 h 2.6229 v 1.7367 h -2.6229 v 3.7347 h 3.3004 v 1.7371 h -5.2112 z m 6.3054,0 h 2.7272 l 1.2161,8.7027 h 0.0346 l 1.216,-8.7027 h 2.7269 v 12.1593 h -1.8065 v -9.2061 h -0.0346 l -1.3898,9.2061 h -1.5979 l -1.3895,-9.2061 h -0.0349 v 9.2061 h -1.6676 z m 11.6206,0 h 1.9282 l 1.2506,9.432 h 0.0349 l 1.2506,-9.432 h 1.7544 l -1.8414,12.1593 h -2.5359 z m 7.1391,0 h 5.2112 v 1.7371 h -3.3004 v 3.2137 h 2.6229 v 1.7367 h -2.6229 v 3.7347 h 3.3004 v 1.7371 h -5.2112 z m 6.3054,0 h 2.3972 l 1.8587,7.2783 h 0.0346 v -7.2783 h 1.7022 v 12.1593 h -1.9627 l -2.293,-8.8762 h -0.0345 v 8.8762 h -1.7025 z m 7.4171,0 h 2.9183 c 0.9496,0 1.6616,0.2549 2.1364,0.7646 0.4748,0.5093 0.7124,1.2563 0.7124,2.2405 v 6.1492 c 0,0.9841 -0.2376,1.7311 -0.7124,2.2407 -0.4748,0.5094 -1.1868,0.7643 -2.1364,0.7643 h -2.9183 z m 2.8837,10.4222 c 0.3126,0 0.5527,-0.0927 0.7208,-0.2778 0.1678,-0.1854 0.2518,-0.4864 0.2518,-0.9034 v -6.3227 c 0,-0.417 -0.084,-0.718 -0.2518,-0.9031 -0.1681,-0.1854 -0.4082,-0.2781 -0.7208,-0.2781 h -0.9729 v 8.6851 z m 5.6103,-10.4222 h 2.5881 l 1.9802,12.1593 h -1.9105 l -0.3475,-2.4146 v 0.0349 h -2.1714 l -0.3472,2.3797 h -1.772 z m 2.0843,8.1295 -0.8509,-6.0103 h -0.0349 l -0.8337,6.0103 z m 5.8366,4.2035 c -0.9264,0 -1.6271,-0.2636 -2.1016,-0.7903 -0.4748,-0.5269 -0.7124,-1.2827 -0.7124,-2.2668 v -0.6948 h 1.8065 v 0.8337 c 0,0.7874 0.33,1.1812 0.9902,1.1812 0.3243,0 0.5703,-0.0956 0.7381,-0.2866 0.1681,-0.1911 0.252,-0.5009 0.252,-0.9292 0,-0.5097 -0.1159,-0.9584 -0.3475,-1.3465 -0.2316,-0.3878 -0.6599,-0.8538 -1.2852,-1.398 -0.7875,-0.6951 -1.3377,-1.3232 -1.6504,-1.8848 -0.3126,-0.5615 -0.4688,-1.1956 -0.4688,-1.902 0,-0.9613 0.2432,-1.7051 0.7293,-2.232 0.4865,-0.527 1.1929,-0.7903 2.1192,-0.7903 0.915,0 1.6067,0.2633 2.0758,0.7903 0.4689,0.5269 0.7036,1.2824 0.7036,2.2668 v 0.5038 h -1.8065 v -0.6254 c 0,-0.4169 -0.0811,-0.7208 -0.2432,-0.9119 -0.1622,-0.1913 -0.3994,-0.2868 -0.7121,-0.2868 -0.637,0 -0.9556,0.388 -0.9556,1.1639 0,0.4399 0.1188,0.8512 0.3561,1.2333 0.2375,0.3821 0.6689,0.8453 1.2943,1.3896 0.7988,0.6947 1.349,1.326 1.65,1.8932 0.3011,0.5675 0.4516,1.2334 0.4516,1.9976 0,0.9961 -0.2461,1.7603 -0.7382,2.2929 -0.4921,0.5327 -1.2072,0.7991 -2.1452,0.7991 z" />
  </g>
</svg>
