<?xml version="1.0" encoding="UTF-8" standalone="no"?>
<svg
   xmlns:dc="http://purl.org/dc/elements/1.1/"
   xmlns:cc="http://creativecommons.org/ns#"
   xmlns:rdf="http://www.w3.org/1999/02/22-rdf-syntax-ns#"
   xmlns:svg="http://www.w3.org/2000/svg"
   xmlns="http://www.w3.org/2000/svg"
   height="88.831001"
   width="88.831001"
   id="svg14"
   xml:space="preserve"
   enable-background="new 0 0 100 100"
   viewBox="0 0 88.831001 88.831001"
   y="0px"
   x="0px"
   version="1.1"><metadata
     id="metadata20"><rdf:RDF><cc:Work
         rdf:about=""><dc:format>image/svg+xml</dc:format><dc:type
           rdf:resource="http://purl.org/dc/dcmitype/StillImage" /><dc:title></dc:title></cc:Work></rdf:RDF></metadata><defs
     id="defs18" /><g
     transform="translate(-10,-1.169)"
     id="g8"><path
       id="path2"
       d="M 86.669,1.169 75.677,12.162 72.648,24.415 72.349,24.116 70.775,25.69 53.602,42.863 C 52.519,42.315 51.297,42 50,42 c -4.419,0 -8,3.582 -8,8 0,4.418 3.581,8 8,8 4.419,0 8,-3.582 8,-8 0,-1.297 -0.315,-2.518 -0.863,-3.602 l 6.503,-6.502 v 0 l 5.717,-5.717 v 0 l 6.527,-6.528 -0.298,-0.297 6.263,-1.549 v 0 l 5.99,-1.482 10.992,-10.992 -12.16,-10e-4 z" /><path
       id="path4"
       d="m 50,33 c 1.917,0 3.753,0.333 5.474,0.921 L 61.56,27.834 C 58.103,26.027 54.172,25 50,25 36.191,25 25,36.191 25,50 25,63.809 36.191,75 50,75 63.809,75 75,63.809 75,50 75,45.828 73.973,41.898 72.166,38.44 l -6.087,6.086 C 66.667,46.247 67,48.083 67,50 67,59.374 59.374,67 50,67 40.626,67 33,59.374 33,50 33,40.626 40.626,33 50,33 Z" /><path
       id="path6"
       d="m 78.929,31.678 -1.636,1.636 C 80.276,38.176 82,43.89 82,50 82,67.645 67.645,82 50,82 32.355,82 18,67.645 18,50 18,32.355 32.355,18 50,18 c 6.11,0 11.825,1.724 16.687,4.708 l 1.638,-1.638 1.443,-5.84 C 63.937,11.908 57.193,10 50,10 27.906,10 10,27.906 10,50 10,72.094 27.906,90 50,90 72.094,90 90,72.094 90,50 90,42.807 88.093,36.064 84.771,30.233 Z" /></g></svg>