<?xml version="1.0" encoding="UTF-8" standalone="no"?>
<svg
   xmlns:dc="http://purl.org/dc/elements/1.1/"
   xmlns:cc="http://creativecommons.org/ns#"
   xmlns:rdf="http://www.w3.org/1999/02/22-rdf-syntax-ns#"
   xmlns:svg="http://www.w3.org/2000/svg"
   xmlns="http://www.w3.org/2000/svg"
   height="231.291"
   width="228.02205"
   id="svg20"
   xml:space="preserve"
   enable-background="new 0 0 255.118 255.118"
   viewBox="0 0 228.02205 231.29101"
   y="0px"
   x="0px"
   version="1.1"><metadata
     id="metadata26"><rdf:RDF><cc:Work
         rdf:about=""><dc:format>image/svg+xml</dc:format><dc:type
           rdf:resource="http://purl.org/dc/dcmitype/StillImage" /><dc:title></dc:title></cc:Work></rdf:RDF></metadata><defs
     id="defs24" /><g
     transform="translate(-13.364947,-9.9790001)"
     id="g14"><polygon
       style="fill:#000000"
       id="polygon2"
       points="187.767,77.323 183.993,79.546 183.993,109.844 187.767,109.844 " /><polygon
       style="fill:#000000"
       id="polygon4"
       points="168.908,88.434 165.136,90.658 165.136,109.844 168.908,109.844 " /><path
       style="fill:#000000"
       id="path6"
       d="m 136.664,93.451 c 0.282,-0.022 0.563,-0.03 0.84,-0.03 1.755,0 3.416,0.473 4.866,1.278 l 7.676,-4.518 v -29.37 c 0,-2.086 1.688,-3.771 3.776,-3.771 h 7.543 c 2.087,0 3.771,1.685 3.771,3.771 v 20.476 l 3.771,-2.22 V 45.721 c 0,-2.083 1.688,-3.771 3.774,-3.771 h 7.543 c 2.086,0 3.768,1.688 3.768,3.771 v 24.458 l 7.953,-4.686 1.738,-1.025 1.025,1.74 1.266,2.145 h 3.109 c 2.084,0 3.769,1.688 3.769,3.776 v 37.714 h 3.771 V 53.268 c 0,-2.091 1.688,-3.771 3.771,-3.771 h 7.543 c 2.087,0 3.776,1.681 3.776,3.771 v 56.576 h 1.882 c 2.089,0 3.776,1.683 3.776,3.771 0,2.086 -1.688,3.774 -3.776,3.774 h -5.658 -7.543 -11.312 -7.542 -11.317 -7.543 -11.317 -7.543 -5.66 c -2.082,0 -3.767,-1.688 -3.767,-3.774 0,-2.088 1.685,-3.771 3.767,-3.771 h 1.884 V 99.548 l -2.748,1.618 c 0.122,0.497 0.212,0.997 0.255,1.517 0.452,5.545 -3.681,10.422 -9.225,10.884 -1.765,0.148 -3.501,0.218 -5.15,0.218 h -0.073 c -0.919,0 -1.825,-0.03 -2.731,-0.075 v 84.668 h 41.406 l -13.64,42.384 h 11.667 l 13.632,-42.384 h 4.885 l 13.632,42.384 h 11.665 l -13.635,-42.384 h 41.403 V 17.731 H 130.373 v 75.757 c 0.922,0.07 1.853,0.109 2.805,0.109 1.129,0 2.303,-0.048 3.486,-0.146 z m 9.916,77.172 v -9.082 h 51.466 v 9.082 z m 71.648,-16.149 H 146.58 v -9.082 h 71.648 z" /><path
       style="fill:#000000"
       id="path8"
       d="M 96.112,228.79 V 119.856 c 0,-0.598 -0.054,-1.18 -0.136,-1.754 v -21.73 c 3.428,3.384 7.551,6.645 12.486,9.305 3.705,1.993 7.883,3.612 12.46,4.678 2.979,0.699 6.136,1.161 9.451,1.329 0.901,0.042 1.808,0.082 2.735,0.082 0.023,0 0.042,0 0.069,0 1.626,0 3.287,-0.069 4.979,-0.207 4.447,-0.372 7.746,-4.268 7.387,-8.712 -0.016,-0.203 -0.051,-0.402 -0.082,-0.598 -0.109,-0.702 -0.309,-1.372 -0.582,-1.992 -0.566,-1.283 -1.446,-2.373 -2.541,-3.194 -0.625,-0.473 -1.321,-0.851 -2.062,-1.129 -1.071,-0.386 -2.235,-0.571 -3.444,-0.465 -1.266,0.098 -2.48,0.154 -3.654,0.154 -0.96,-0.005 -1.891,-0.048 -2.805,-0.111 -3.085,-0.215 -5.871,-0.774 -8.423,-1.59 -2.091,-0.662 -4.029,-1.501 -5.835,-2.466 -6.964,-3.729 -12.056,-9.583 -15.336,-14.613 -1.632,-2.501 -2.806,-4.768 -3.553,-6.359 -0.367,-0.792 -0.633,-1.422 -0.792,-1.821 -0.078,-0.199 -0.138,-0.34 -0.165,-0.422 -0.016,-0.038 -0.024,-0.062 -0.032,-0.074 v 0 C 95.816,66.991 95.144,65.971 94.307,65.142 92.88,63.321 90.669,62.149 88.175,62.149 H 49.183 c -0.641,0 -1.266,0.09 -1.86,0.239 -0.771,0.014 -1.556,0.141 -2.321,0.394 -0.586,0.207 -7.941,2.599 -15.715,9.083 -3.873,3.251 -7.855,7.573 -10.888,13.221 -3.037,5.628 -5.046,12.589 -5.034,20.582 0.012,12.415 4.674,26.977 16.106,44.193 1.547,2.342 4.119,3.607 6.73,3.611 1.536,0 3.087,-0.442 4.462,-1.353 0.251,-0.167 0.493,-0.353 0.72,-0.547 v 77.219 c 0,6.89 5.592,12.479 12.482,12.479 6.886,0 12.475,-5.589 12.475,-12.479 V 146.77 h 4.815 v 82.021 c 0,6.89 5.589,12.479 12.483,12.479 6.886,-0.001 12.474,-5.59 12.474,-12.48 z M 29.513,105.666 c 0.012,-5.355 1.262,-9.47 3.115,-12.941 2.239,-4.209 5.55,-7.465 8.755,-9.833 v 36.964 18.693 C 32.346,124.276 29.501,113.482 29.513,105.666 Z m 39.164,30.339 -2.338,-2.955 -7.246,-9.157 1.931,-14.246 3.823,-28.138 -1.923,-3.03 1.923,-7.566 h 3.83 3.838 l 1.914,7.566 -1.914,3.03 3.83,28.231 1.922,14.152 -7.112,8.981 z" /><circle
       style="fill:#000000"
       id="circle10"
       r="22.702"
       cy="32.681"
       cx="68.679001" /><path
       style="fill:#000000"
       id="path12"
       d="m 146.615,99.229 3.431,-2.02 15.091,-8.892 3.771,-2.22 15.085,-8.895 3.774,-2.216 7.254,-4.274 -1.391,-2.357 -0.656,-1.118 -2.002,1.174 -2.407,1.414 -4.572,2.697 -15.085,8.886 -3.771,2.224 -15.091,8.891 -5.87,3.459 c 1.016,0.902 1.848,2 2.439,3.247 z" /></g></svg>