<?xml version="1.0" encoding="UTF-8" standalone="no"?>
<svg
   xmlns:dc="http://purl.org/dc/elements/1.1/"
   xmlns:cc="http://creativecommons.org/ns#"
   xmlns:rdf="http://www.w3.org/1999/02/22-rdf-syntax-ns#"
   xmlns:svg="http://www.w3.org/2000/svg"
   xmlns="http://www.w3.org/2000/svg"
   xmlns:sodipodi="http://sodipodi.sourceforge.net/DTD/sodipodi-0.dtd"
   xmlns:inkscape="http://www.inkscape.org/namespaces/inkscape"
   height="66.965187"
   width="84.7948"
   id="svg12"
   version="1.1"
   y="0px"
   x="0px"
   viewBox="0 0 84.7948 66.965187"
   data-name="Layer 1"
   sodipodi:docname="noun_binoculars.svg"
   inkscape:version="0.92.4 5da689c313, 2019-01-14">
  <sodipodi:namedview
     pagecolor="#ffffff"
     bordercolor="#666666"
     borderopacity="1"
     objecttolerance="10"
     gridtolerance="10"
     guidetolerance="10"
     inkscape:pageopacity="0"
     inkscape:pageshadow="2"
     inkscape:window-width="798"
     inkscape:window-height="480"
     id="namedview8"
     showgrid="false"
     inkscape:zoom="3.5242192"
     inkscape:cx="42.3974"
     inkscape:cy="33.482594"
     inkscape:window-x="0"
     inkscape:window-y="24"
     inkscape:window-maximized="0"
     inkscape:current-layer="svg12" />
  <metadata
     id="metadata18">
    <rdf:RDF>
      <cc:Work
         rdf:about="">
        <dc:format>image/svg+xml</dc:format>
        <dc:type
           rdf:resource="http://purl.org/dc/dcmitype/StillImage" />
        <dc:title>21</dc:title>
      </cc:Work>
    </rdf:RDF>
  </metadata>
  <defs
     id="defs16" />
  <title
     id="title2">21</title>
  <g
     transform="translate(-7.6078399,-16.43506)"
     id="g6"
     data-name="Group"
     style="fill:#ffffff">
    <path
       id="path4"
       d="M 30.8,16.7 A 10.2,10.2 0 0 0 19.6,25.5 L 8.9,59.2 A 17.4,17.4 0 0 0 8.1,61.8 V 62 H 8 a 17.7,17.7 0 0 0 -0.3,2.1 17.5,17.5 0 0 0 15.6,19.2 h 1.8 A 17.5,17.5 0 0 0 42.4,67.7 c 0,-0.2 0,-0.5 0,-0.7 v 0 A 17.5,17.5 0 0 0 42.1,62.5 L 41.4,51.8 h 17 L 57.7,62.5 A 17.5,17.5 0 0 0 57.4,67 v 0 c 0,0.2 0,0.5 0,0.7 a 17.5,17.5 0 0 0 17.5,15.7 h 1.8 A 17.5,17.5 0 0 0 92.3,64.1 17.7,17.7 0 0 0 92,62 v 0 -0.2 A 17.4,17.4 0 0 0 91.2,59.2 L 80.3,25.5 A 10.21494,10.21494 0 0 0 60,27.8 L 59.7,33 H 40.3 L 40,27.8 A 10.2,10.2 0 0 0 30.8,16.7 Z M 23.5,81.3 A 15.5,15.5 0 0 1 9.7,64.3 15.7,15.7 0 0 1 10,62.4 l 0.8,-2.5 A 15.5,15.5 0 0 1 25,50.5 h 1.6 a 15.5,15.5 0 0 1 13.6,12.3 l 0.3,4.3 c 0,0.2 0,0.3 0,0.5 a 15.5,15.5 0 0 1 -17,13.7 z M 38.6,54.9 A 17.5,17.5 0 0 0 14,52.4 l -1.2,1 8.7,-27.4 v 0 A 8.2936723,8.2936723 0 0 1 38,27.7 v 0 0.2 l 1.8,28.7 z m 37.9,26.4 a 15.5,15.5 0 0 1 -17,-13.8 c 0,-0.2 0,-0.3 0,-0.5 l 0.3,-4.3 A 15.5,15.5 0 0 1 73.4,50.5 H 75 a 15.5,15.5 0 0 1 14.2,9.4 l 0.8,2.5 a 15.7,15.7 0 0 1 0.3,1.9 15.5,15.5 0 0 1 -13.8,17 z M 63.9,21.6 A 8.2,8.2 0 0 1 78.4,26 v 0 l 8.7,27.4 -1.2,-1 a 17.5,17.5 0 0 0 -24.6,2.5 l -1.2,1.7 1.8,-28.7 v -0.2 0 a 8.2,8.2 0 0 1 2,-6.1 z M 59.6,34.9 58.7,49.7 H 41.4 L 40.5,34.9 Z"
       data-name="Compound Path"
       style="fill:#ffffff" />
  </g>
</svg>
